M48
; DRILL file {KiCad 9.0.7} date 2026-03-01T20:21:27-0500
; FORMAT={-:-/ absolute / metric / decimal}
; #@! TF.CreationDate,2026-03-01T20:21:27-05:00
; #@! TF.GenerationSoftware,Kicad,Pcbnew,9.0.7
; #@! TF.FileFunction,Plated,1,4,PTH
FMAT,2
METRIC
; #@! TA.AperFunction,Plated,PTH,ViaDrill
T1C0.200
; #@! TA.AperFunction,Plated,PTH,ComponentDrill
T2C0.300
%
G90
G05
T1
X105.095Y-102.684
X105.645Y-97.691
X106.195Y-102.134
X106.745Y-98.241
X107.295Y-101.584
X107.845Y-98.791
X108.395Y-101.034
X112.142Y-100.484
X112.777Y-99.341
X112.777Y-100.484
X113.412Y-99.341
X113.412Y-100.484
X114.047Y-99.341
X114.047Y-100.484
X114.682Y-99.341
X114.682Y-100.484
X115.317Y-99.341
X115.317Y-100.484
X115.953Y-99.341
X115.953Y-100.484
X116.587Y-99.341
X122.105Y-98.791
X122.655Y-101.034
X123.205Y-98.241
X123.755Y-101.584
X124.305Y-97.691
X124.855Y-102.134
X125.405Y-97.141
T2
X113.6Y-92.6
X113.6Y-94.0
X113.6Y-95.4
X115.0Y-92.6
X115.0Y-94.0
X115.0Y-95.4
X116.4Y-92.6
X116.4Y-94.0
X116.4Y-95.4
M30
