%TF.GenerationSoftware,KiCad,Pcbnew,9.0.7*%
%TF.CreationDate,2026-02-23T13:29:16-05:00*%
%TF.ProjectId,afe-headstage-real,6166652d-6865-4616-9473-746167652d72,0.1*%
%TF.SameCoordinates,Original*%
%TF.FileFunction,Legend,Top*%
%TF.FilePolarity,Positive*%
%FSLAX46Y46*%
G04 Gerber Fmt 4.6, Leading zero omitted, Abs format (unit mm)*
G04 Created by KiCad (PCBNEW 9.0.7) date 2026-02-23 13:29:16*
%MOMM*%
%LPD*%
G01*
G04 APERTURE LIST*
%ADD10C,0.150000*%
G04 APERTURE END LIST*
D10*
X119238095Y-88454819D02*
X119238095Y-89264342D01*
X119238095Y-89264342D02*
X119285714Y-89359580D01*
X119285714Y-89359580D02*
X119333333Y-89407200D01*
X119333333Y-89407200D02*
X119428571Y-89454819D01*
X119428571Y-89454819D02*
X119619047Y-89454819D01*
X119619047Y-89454819D02*
X119714285Y-89407200D01*
X119714285Y-89407200D02*
X119761904Y-89359580D01*
X119761904Y-89359580D02*
X119809523Y-89264342D01*
X119809523Y-89264342D02*
X119809523Y-88454819D01*
X120809523Y-89454819D02*
X120238095Y-89454819D01*
X120523809Y-89454819D02*
X120523809Y-88454819D01*
X120523809Y-88454819D02*
X120428571Y-88597676D01*
X120428571Y-88597676D02*
X120333333Y-88692914D01*
X120333333Y-88692914D02*
X120238095Y-88740533D01*
X105238095Y-83454819D02*
X105238095Y-84264342D01*
X105238095Y-84264342D02*
X105285714Y-84359580D01*
X105285714Y-84359580D02*
X105333333Y-84407200D01*
X105333333Y-84407200D02*
X105428571Y-84454819D01*
X105428571Y-84454819D02*
X105619047Y-84454819D01*
X105619047Y-84454819D02*
X105714285Y-84407200D01*
X105714285Y-84407200D02*
X105761904Y-84359580D01*
X105761904Y-84359580D02*
X105809523Y-84264342D01*
X105809523Y-84264342D02*
X105809523Y-83454819D01*
X106238095Y-83550057D02*
X106285714Y-83502438D01*
X106285714Y-83502438D02*
X106380952Y-83454819D01*
X106380952Y-83454819D02*
X106619047Y-83454819D01*
X106619047Y-83454819D02*
X106714285Y-83502438D01*
X106714285Y-83502438D02*
X106761904Y-83550057D01*
X106761904Y-83550057D02*
X106809523Y-83645295D01*
X106809523Y-83645295D02*
X106809523Y-83740533D01*
X106809523Y-83740533D02*
X106761904Y-83883390D01*
X106761904Y-83883390D02*
X106190476Y-84454819D01*
X106190476Y-84454819D02*
X106809523Y-84454819D01*
X119666666Y-113454819D02*
X119666666Y-114169104D01*
X119666666Y-114169104D02*
X119619047Y-114311961D01*
X119619047Y-114311961D02*
X119523809Y-114407200D01*
X119523809Y-114407200D02*
X119380952Y-114454819D01*
X119380952Y-114454819D02*
X119285714Y-114454819D01*
X120619047Y-113454819D02*
X120142857Y-113454819D01*
X120142857Y-113454819D02*
X120095238Y-113931009D01*
X120095238Y-113931009D02*
X120142857Y-113883390D01*
X120142857Y-113883390D02*
X120238095Y-113835771D01*
X120238095Y-113835771D02*
X120476190Y-113835771D01*
X120476190Y-113835771D02*
X120571428Y-113883390D01*
X120571428Y-113883390D02*
X120619047Y-113931009D01*
X120619047Y-113931009D02*
X120666666Y-114026247D01*
X120666666Y-114026247D02*
X120666666Y-114264342D01*
X120666666Y-114264342D02*
X120619047Y-114359580D01*
X120619047Y-114359580D02*
X120571428Y-114407200D01*
X120571428Y-114407200D02*
X120476190Y-114454819D01*
X120476190Y-114454819D02*
X120238095Y-114454819D01*
X120238095Y-114454819D02*
X120142857Y-114407200D01*
X120142857Y-114407200D02*
X120095238Y-114359580D01*
X102833333Y-84859580D02*
X102785714Y-84907200D01*
X102785714Y-84907200D02*
X102642857Y-84954819D01*
X102642857Y-84954819D02*
X102547619Y-84954819D01*
X102547619Y-84954819D02*
X102404762Y-84907200D01*
X102404762Y-84907200D02*
X102309524Y-84811961D01*
X102309524Y-84811961D02*
X102261905Y-84716723D01*
X102261905Y-84716723D02*
X102214286Y-84526247D01*
X102214286Y-84526247D02*
X102214286Y-84383390D01*
X102214286Y-84383390D02*
X102261905Y-84192914D01*
X102261905Y-84192914D02*
X102309524Y-84097676D01*
X102309524Y-84097676D02*
X102404762Y-84002438D01*
X102404762Y-84002438D02*
X102547619Y-83954819D01*
X102547619Y-83954819D02*
X102642857Y-83954819D01*
X102642857Y-83954819D02*
X102785714Y-84002438D01*
X102785714Y-84002438D02*
X102833333Y-84050057D01*
X103785714Y-84954819D02*
X103214286Y-84954819D01*
X103500000Y-84954819D02*
X103500000Y-83954819D01*
X103500000Y-83954819D02*
X103404762Y-84097676D01*
X103404762Y-84097676D02*
X103309524Y-84192914D01*
X103309524Y-84192914D02*
X103214286Y-84240533D01*
X109833333Y-84859580D02*
X109785714Y-84907200D01*
X109785714Y-84907200D02*
X109642857Y-84954819D01*
X109642857Y-84954819D02*
X109547619Y-84954819D01*
X109547619Y-84954819D02*
X109404762Y-84907200D01*
X109404762Y-84907200D02*
X109309524Y-84811961D01*
X109309524Y-84811961D02*
X109261905Y-84716723D01*
X109261905Y-84716723D02*
X109214286Y-84526247D01*
X109214286Y-84526247D02*
X109214286Y-84383390D01*
X109214286Y-84383390D02*
X109261905Y-84192914D01*
X109261905Y-84192914D02*
X109309524Y-84097676D01*
X109309524Y-84097676D02*
X109404762Y-84002438D01*
X109404762Y-84002438D02*
X109547619Y-83954819D01*
X109547619Y-83954819D02*
X109642857Y-83954819D01*
X109642857Y-83954819D02*
X109785714Y-84002438D01*
X109785714Y-84002438D02*
X109833333Y-84050057D01*
X110214286Y-84050057D02*
X110261905Y-84002438D01*
X110261905Y-84002438D02*
X110357143Y-83954819D01*
X110357143Y-83954819D02*
X110595238Y-83954819D01*
X110595238Y-83954819D02*
X110690476Y-84002438D01*
X110690476Y-84002438D02*
X110738095Y-84050057D01*
X110738095Y-84050057D02*
X110785714Y-84145295D01*
X110785714Y-84145295D02*
X110785714Y-84240533D01*
X110785714Y-84240533D02*
X110738095Y-84383390D01*
X110738095Y-84383390D02*
X110166667Y-84954819D01*
X110166667Y-84954819D02*
X110785714Y-84954819D01*
X129833333Y-84859580D02*
X129785714Y-84907200D01*
X129785714Y-84907200D02*
X129642857Y-84954819D01*
X129642857Y-84954819D02*
X129547619Y-84954819D01*
X129547619Y-84954819D02*
X129404762Y-84907200D01*
X129404762Y-84907200D02*
X129309524Y-84811961D01*
X129309524Y-84811961D02*
X129261905Y-84716723D01*
X129261905Y-84716723D02*
X129214286Y-84526247D01*
X129214286Y-84526247D02*
X129214286Y-84383390D01*
X129214286Y-84383390D02*
X129261905Y-84192914D01*
X129261905Y-84192914D02*
X129309524Y-84097676D01*
X129309524Y-84097676D02*
X129404762Y-84002438D01*
X129404762Y-84002438D02*
X129547619Y-83954819D01*
X129547619Y-83954819D02*
X129642857Y-83954819D01*
X129642857Y-83954819D02*
X129785714Y-84002438D01*
X129785714Y-84002438D02*
X129833333Y-84050057D01*
X130166667Y-83954819D02*
X130785714Y-83954819D01*
X130785714Y-83954819D02*
X130452381Y-84335771D01*
X130452381Y-84335771D02*
X130595238Y-84335771D01*
X130595238Y-84335771D02*
X130690476Y-84383390D01*
X130690476Y-84383390D02*
X130738095Y-84431009D01*
X130738095Y-84431009D02*
X130785714Y-84526247D01*
X130785714Y-84526247D02*
X130785714Y-84764342D01*
X130785714Y-84764342D02*
X130738095Y-84859580D01*
X130738095Y-84859580D02*
X130690476Y-84907200D01*
X130690476Y-84907200D02*
X130595238Y-84954819D01*
X130595238Y-84954819D02*
X130309524Y-84954819D01*
X130309524Y-84954819D02*
X130214286Y-84907200D01*
X130214286Y-84907200D02*
X130166667Y-84859580D01*
X131833333Y-92859580D02*
X131785714Y-92907200D01*
X131785714Y-92907200D02*
X131642857Y-92954819D01*
X131642857Y-92954819D02*
X131547619Y-92954819D01*
X131547619Y-92954819D02*
X131404762Y-92907200D01*
X131404762Y-92907200D02*
X131309524Y-92811961D01*
X131309524Y-92811961D02*
X131261905Y-92716723D01*
X131261905Y-92716723D02*
X131214286Y-92526247D01*
X131214286Y-92526247D02*
X131214286Y-92383390D01*
X131214286Y-92383390D02*
X131261905Y-92192914D01*
X131261905Y-92192914D02*
X131309524Y-92097676D01*
X131309524Y-92097676D02*
X131404762Y-92002438D01*
X131404762Y-92002438D02*
X131547619Y-91954819D01*
X131547619Y-91954819D02*
X131642857Y-91954819D01*
X131642857Y-91954819D02*
X131785714Y-92002438D01*
X131785714Y-92002438D02*
X131833333Y-92050057D01*
X132690476Y-92288152D02*
X132690476Y-92954819D01*
X132452381Y-91907200D02*
X132214286Y-92621485D01*
X132214286Y-92621485D02*
X132833333Y-92621485D01*
X113833333Y-84859580D02*
X113785714Y-84907200D01*
X113785714Y-84907200D02*
X113642857Y-84954819D01*
X113642857Y-84954819D02*
X113547619Y-84954819D01*
X113547619Y-84954819D02*
X113404762Y-84907200D01*
X113404762Y-84907200D02*
X113309524Y-84811961D01*
X113309524Y-84811961D02*
X113261905Y-84716723D01*
X113261905Y-84716723D02*
X113214286Y-84526247D01*
X113214286Y-84526247D02*
X113214286Y-84383390D01*
X113214286Y-84383390D02*
X113261905Y-84192914D01*
X113261905Y-84192914D02*
X113309524Y-84097676D01*
X113309524Y-84097676D02*
X113404762Y-84002438D01*
X113404762Y-84002438D02*
X113547619Y-83954819D01*
X113547619Y-83954819D02*
X113642857Y-83954819D01*
X113642857Y-83954819D02*
X113785714Y-84002438D01*
X113785714Y-84002438D02*
X113833333Y-84050057D01*
X114738095Y-83954819D02*
X114261905Y-83954819D01*
X114261905Y-83954819D02*
X114214286Y-84431009D01*
X114214286Y-84431009D02*
X114261905Y-84383390D01*
X114261905Y-84383390D02*
X114357143Y-84335771D01*
X114357143Y-84335771D02*
X114595238Y-84335771D01*
X114595238Y-84335771D02*
X114690476Y-84383390D01*
X114690476Y-84383390D02*
X114738095Y-84431009D01*
X114738095Y-84431009D02*
X114785714Y-84526247D01*
X114785714Y-84526247D02*
X114785714Y-84764342D01*
X114785714Y-84764342D02*
X114738095Y-84859580D01*
X114738095Y-84859580D02*
X114690476Y-84907200D01*
X114690476Y-84907200D02*
X114595238Y-84954819D01*
X114595238Y-84954819D02*
X114357143Y-84954819D01*
X114357143Y-84954819D02*
X114261905Y-84907200D01*
X114261905Y-84907200D02*
X114214286Y-84859580D01*
X121166666Y-84431009D02*
X120833333Y-84431009D01*
X120833333Y-84954819D02*
X120833333Y-83954819D01*
X120833333Y-83954819D02*
X121309523Y-83954819D01*
X122023809Y-84431009D02*
X122166666Y-84478628D01*
X122166666Y-84478628D02*
X122214285Y-84526247D01*
X122214285Y-84526247D02*
X122261904Y-84621485D01*
X122261904Y-84621485D02*
X122261904Y-84764342D01*
X122261904Y-84764342D02*
X122214285Y-84859580D01*
X122214285Y-84859580D02*
X122166666Y-84907200D01*
X122166666Y-84907200D02*
X122071428Y-84954819D01*
X122071428Y-84954819D02*
X121690476Y-84954819D01*
X121690476Y-84954819D02*
X121690476Y-83954819D01*
X121690476Y-83954819D02*
X122023809Y-83954819D01*
X122023809Y-83954819D02*
X122119047Y-84002438D01*
X122119047Y-84002438D02*
X122166666Y-84050057D01*
X122166666Y-84050057D02*
X122214285Y-84145295D01*
X122214285Y-84145295D02*
X122214285Y-84240533D01*
X122214285Y-84240533D02*
X122166666Y-84335771D01*
X122166666Y-84335771D02*
X122119047Y-84383390D01*
X122119047Y-84383390D02*
X122023809Y-84431009D01*
X122023809Y-84431009D02*
X121690476Y-84431009D01*
X123214285Y-84954819D02*
X122642857Y-84954819D01*
X122928571Y-84954819D02*
X122928571Y-83954819D01*
X122928571Y-83954819D02*
X122833333Y-84097676D01*
X122833333Y-84097676D02*
X122738095Y-84192914D01*
X122738095Y-84192914D02*
X122642857Y-84240533D01*
X105833333Y-94954819D02*
X105500000Y-94478628D01*
X105261905Y-94954819D02*
X105261905Y-93954819D01*
X105261905Y-93954819D02*
X105642857Y-93954819D01*
X105642857Y-93954819D02*
X105738095Y-94002438D01*
X105738095Y-94002438D02*
X105785714Y-94050057D01*
X105785714Y-94050057D02*
X105833333Y-94145295D01*
X105833333Y-94145295D02*
X105833333Y-94288152D01*
X105833333Y-94288152D02*
X105785714Y-94383390D01*
X105785714Y-94383390D02*
X105738095Y-94431009D01*
X105738095Y-94431009D02*
X105642857Y-94478628D01*
X105642857Y-94478628D02*
X105261905Y-94478628D01*
X106785714Y-94954819D02*
X106214286Y-94954819D01*
X106500000Y-94954819D02*
X106500000Y-93954819D01*
X106500000Y-93954819D02*
X106404762Y-94097676D01*
X106404762Y-94097676D02*
X106309524Y-94192914D01*
X106309524Y-94192914D02*
X106214286Y-94240533D01*
X105833333Y-97954819D02*
X105500000Y-97478628D01*
X105261905Y-97954819D02*
X105261905Y-96954819D01*
X105261905Y-96954819D02*
X105642857Y-96954819D01*
X105642857Y-96954819D02*
X105738095Y-97002438D01*
X105738095Y-97002438D02*
X105785714Y-97050057D01*
X105785714Y-97050057D02*
X105833333Y-97145295D01*
X105833333Y-97145295D02*
X105833333Y-97288152D01*
X105833333Y-97288152D02*
X105785714Y-97383390D01*
X105785714Y-97383390D02*
X105738095Y-97431009D01*
X105738095Y-97431009D02*
X105642857Y-97478628D01*
X105642857Y-97478628D02*
X105261905Y-97478628D01*
X106214286Y-97050057D02*
X106261905Y-97002438D01*
X106261905Y-97002438D02*
X106357143Y-96954819D01*
X106357143Y-96954819D02*
X106595238Y-96954819D01*
X106595238Y-96954819D02*
X106690476Y-97002438D01*
X106690476Y-97002438D02*
X106738095Y-97050057D01*
X106738095Y-97050057D02*
X106785714Y-97145295D01*
X106785714Y-97145295D02*
X106785714Y-97240533D01*
X106785714Y-97240533D02*
X106738095Y-97383390D01*
X106738095Y-97383390D02*
X106166667Y-97954819D01*
X106166667Y-97954819D02*
X106785714Y-97954819D01*
X105833333Y-100954819D02*
X105500000Y-100478628D01*
X105261905Y-100954819D02*
X105261905Y-99954819D01*
X105261905Y-99954819D02*
X105642857Y-99954819D01*
X105642857Y-99954819D02*
X105738095Y-100002438D01*
X105738095Y-100002438D02*
X105785714Y-100050057D01*
X105785714Y-100050057D02*
X105833333Y-100145295D01*
X105833333Y-100145295D02*
X105833333Y-100288152D01*
X105833333Y-100288152D02*
X105785714Y-100383390D01*
X105785714Y-100383390D02*
X105738095Y-100431009D01*
X105738095Y-100431009D02*
X105642857Y-100478628D01*
X105642857Y-100478628D02*
X105261905Y-100478628D01*
X106166667Y-99954819D02*
X106785714Y-99954819D01*
X106785714Y-99954819D02*
X106452381Y-100335771D01*
X106452381Y-100335771D02*
X106595238Y-100335771D01*
X106595238Y-100335771D02*
X106690476Y-100383390D01*
X106690476Y-100383390D02*
X106738095Y-100431009D01*
X106738095Y-100431009D02*
X106785714Y-100526247D01*
X106785714Y-100526247D02*
X106785714Y-100764342D01*
X106785714Y-100764342D02*
X106738095Y-100859580D01*
X106738095Y-100859580D02*
X106690476Y-100907200D01*
X106690476Y-100907200D02*
X106595238Y-100954819D01*
X106595238Y-100954819D02*
X106309524Y-100954819D01*
X106309524Y-100954819D02*
X106214286Y-100907200D01*
X106214286Y-100907200D02*
X106166667Y-100859580D01*
X105833333Y-103954819D02*
X105500000Y-103478628D01*
X105261905Y-103954819D02*
X105261905Y-102954819D01*
X105261905Y-102954819D02*
X105642857Y-102954819D01*
X105642857Y-102954819D02*
X105738095Y-103002438D01*
X105738095Y-103002438D02*
X105785714Y-103050057D01*
X105785714Y-103050057D02*
X105833333Y-103145295D01*
X105833333Y-103145295D02*
X105833333Y-103288152D01*
X105833333Y-103288152D02*
X105785714Y-103383390D01*
X105785714Y-103383390D02*
X105738095Y-103431009D01*
X105738095Y-103431009D02*
X105642857Y-103478628D01*
X105642857Y-103478628D02*
X105261905Y-103478628D01*
X106690476Y-103288152D02*
X106690476Y-103954819D01*
X106452381Y-102907200D02*
X106214286Y-103621485D01*
X106214286Y-103621485D02*
X106833333Y-103621485D01*
X131833333Y-98954819D02*
X131500000Y-98478628D01*
X131261905Y-98954819D02*
X131261905Y-97954819D01*
X131261905Y-97954819D02*
X131642857Y-97954819D01*
X131642857Y-97954819D02*
X131738095Y-98002438D01*
X131738095Y-98002438D02*
X131785714Y-98050057D01*
X131785714Y-98050057D02*
X131833333Y-98145295D01*
X131833333Y-98145295D02*
X131833333Y-98288152D01*
X131833333Y-98288152D02*
X131785714Y-98383390D01*
X131785714Y-98383390D02*
X131738095Y-98431009D01*
X131738095Y-98431009D02*
X131642857Y-98478628D01*
X131642857Y-98478628D02*
X131261905Y-98478628D01*
X132738095Y-97954819D02*
X132261905Y-97954819D01*
X132261905Y-97954819D02*
X132214286Y-98431009D01*
X132214286Y-98431009D02*
X132261905Y-98383390D01*
X132261905Y-98383390D02*
X132357143Y-98335771D01*
X132357143Y-98335771D02*
X132595238Y-98335771D01*
X132595238Y-98335771D02*
X132690476Y-98383390D01*
X132690476Y-98383390D02*
X132738095Y-98431009D01*
X132738095Y-98431009D02*
X132785714Y-98526247D01*
X132785714Y-98526247D02*
X132785714Y-98764342D01*
X132785714Y-98764342D02*
X132738095Y-98859580D01*
X132738095Y-98859580D02*
X132690476Y-98907200D01*
X132690476Y-98907200D02*
X132595238Y-98954819D01*
X132595238Y-98954819D02*
X132357143Y-98954819D01*
X132357143Y-98954819D02*
X132261905Y-98907200D01*
X132261905Y-98907200D02*
X132214286Y-98859580D01*
X108738095Y-80254819D02*
X109309523Y-80254819D01*
X109023809Y-81254819D02*
X109023809Y-80254819D01*
X109642857Y-81254819D02*
X109642857Y-80254819D01*
X109642857Y-80254819D02*
X110023809Y-80254819D01*
X110023809Y-80254819D02*
X110119047Y-80302438D01*
X110119047Y-80302438D02*
X110166666Y-80350057D01*
X110166666Y-80350057D02*
X110214285Y-80445295D01*
X110214285Y-80445295D02*
X110214285Y-80588152D01*
X110214285Y-80588152D02*
X110166666Y-80683390D01*
X110166666Y-80683390D02*
X110119047Y-80731009D01*
X110119047Y-80731009D02*
X110023809Y-80778628D01*
X110023809Y-80778628D02*
X109642857Y-80778628D01*
X111166666Y-81254819D02*
X110595238Y-81254819D01*
X110880952Y-81254819D02*
X110880952Y-80254819D01*
X110880952Y-80254819D02*
X110785714Y-80397676D01*
X110785714Y-80397676D02*
X110690476Y-80492914D01*
X110690476Y-80492914D02*
X110595238Y-80540533D01*
X126738095Y-80254819D02*
X127309523Y-80254819D01*
X127023809Y-81254819D02*
X127023809Y-80254819D01*
X127642857Y-81254819D02*
X127642857Y-80254819D01*
X127642857Y-80254819D02*
X128023809Y-80254819D01*
X128023809Y-80254819D02*
X128119047Y-80302438D01*
X128119047Y-80302438D02*
X128166666Y-80350057D01*
X128166666Y-80350057D02*
X128214285Y-80445295D01*
X128214285Y-80445295D02*
X128214285Y-80588152D01*
X128214285Y-80588152D02*
X128166666Y-80683390D01*
X128166666Y-80683390D02*
X128119047Y-80731009D01*
X128119047Y-80731009D02*
X128023809Y-80778628D01*
X128023809Y-80778628D02*
X127642857Y-80778628D01*
X128595238Y-80350057D02*
X128642857Y-80302438D01*
X128642857Y-80302438D02*
X128738095Y-80254819D01*
X128738095Y-80254819D02*
X128976190Y-80254819D01*
X128976190Y-80254819D02*
X129071428Y-80302438D01*
X129071428Y-80302438D02*
X129119047Y-80350057D01*
X129119047Y-80350057D02*
X129166666Y-80445295D01*
X129166666Y-80445295D02*
X129166666Y-80540533D01*
X129166666Y-80540533D02*
X129119047Y-80683390D01*
X129119047Y-80683390D02*
X128547619Y-81254819D01*
X128547619Y-81254819D02*
X129166666Y-81254819D01*
X114738095Y-80254819D02*
X115309523Y-80254819D01*
X115023809Y-81254819D02*
X115023809Y-80254819D01*
X115642857Y-81254819D02*
X115642857Y-80254819D01*
X115642857Y-80254819D02*
X116023809Y-80254819D01*
X116023809Y-80254819D02*
X116119047Y-80302438D01*
X116119047Y-80302438D02*
X116166666Y-80350057D01*
X116166666Y-80350057D02*
X116214285Y-80445295D01*
X116214285Y-80445295D02*
X116214285Y-80588152D01*
X116214285Y-80588152D02*
X116166666Y-80683390D01*
X116166666Y-80683390D02*
X116119047Y-80731009D01*
X116119047Y-80731009D02*
X116023809Y-80778628D01*
X116023809Y-80778628D02*
X115642857Y-80778628D01*
X116547619Y-80254819D02*
X117166666Y-80254819D01*
X117166666Y-80254819D02*
X116833333Y-80635771D01*
X116833333Y-80635771D02*
X116976190Y-80635771D01*
X116976190Y-80635771D02*
X117071428Y-80683390D01*
X117071428Y-80683390D02*
X117119047Y-80731009D01*
X117119047Y-80731009D02*
X117166666Y-80826247D01*
X117166666Y-80826247D02*
X117166666Y-81064342D01*
X117166666Y-81064342D02*
X117119047Y-81159580D01*
X117119047Y-81159580D02*
X117071428Y-81207200D01*
X117071428Y-81207200D02*
X116976190Y-81254819D01*
X116976190Y-81254819D02*
X116690476Y-81254819D01*
X116690476Y-81254819D02*
X116595238Y-81207200D01*
X116595238Y-81207200D02*
X116547619Y-81159580D01*
X100738095Y-94254819D02*
X101309523Y-94254819D01*
X101023809Y-95254819D02*
X101023809Y-94254819D01*
X101642857Y-95254819D02*
X101642857Y-94254819D01*
X101642857Y-94254819D02*
X102023809Y-94254819D01*
X102023809Y-94254819D02*
X102119047Y-94302438D01*
X102119047Y-94302438D02*
X102166666Y-94350057D01*
X102166666Y-94350057D02*
X102214285Y-94445295D01*
X102214285Y-94445295D02*
X102214285Y-94588152D01*
X102214285Y-94588152D02*
X102166666Y-94683390D01*
X102166666Y-94683390D02*
X102119047Y-94731009D01*
X102119047Y-94731009D02*
X102023809Y-94778628D01*
X102023809Y-94778628D02*
X101642857Y-94778628D01*
X103071428Y-94588152D02*
X103071428Y-95254819D01*
X102833333Y-94207200D02*
X102595238Y-94921485D01*
X102595238Y-94921485D02*
X103214285Y-94921485D01*
X100738095Y-97254819D02*
X101309523Y-97254819D01*
X101023809Y-98254819D02*
X101023809Y-97254819D01*
X101642857Y-98254819D02*
X101642857Y-97254819D01*
X101642857Y-97254819D02*
X102023809Y-97254819D01*
X102023809Y-97254819D02*
X102119047Y-97302438D01*
X102119047Y-97302438D02*
X102166666Y-97350057D01*
X102166666Y-97350057D02*
X102214285Y-97445295D01*
X102214285Y-97445295D02*
X102214285Y-97588152D01*
X102214285Y-97588152D02*
X102166666Y-97683390D01*
X102166666Y-97683390D02*
X102119047Y-97731009D01*
X102119047Y-97731009D02*
X102023809Y-97778628D01*
X102023809Y-97778628D02*
X101642857Y-97778628D01*
X103119047Y-97254819D02*
X102642857Y-97254819D01*
X102642857Y-97254819D02*
X102595238Y-97731009D01*
X102595238Y-97731009D02*
X102642857Y-97683390D01*
X102642857Y-97683390D02*
X102738095Y-97635771D01*
X102738095Y-97635771D02*
X102976190Y-97635771D01*
X102976190Y-97635771D02*
X103071428Y-97683390D01*
X103071428Y-97683390D02*
X103119047Y-97731009D01*
X103119047Y-97731009D02*
X103166666Y-97826247D01*
X103166666Y-97826247D02*
X103166666Y-98064342D01*
X103166666Y-98064342D02*
X103119047Y-98159580D01*
X103119047Y-98159580D02*
X103071428Y-98207200D01*
X103071428Y-98207200D02*
X102976190Y-98254819D01*
X102976190Y-98254819D02*
X102738095Y-98254819D01*
X102738095Y-98254819D02*
X102642857Y-98207200D01*
X102642857Y-98207200D02*
X102595238Y-98159580D01*
X100738095Y-100254819D02*
X101309523Y-100254819D01*
X101023809Y-101254819D02*
X101023809Y-100254819D01*
X101642857Y-101254819D02*
X101642857Y-100254819D01*
X101642857Y-100254819D02*
X102023809Y-100254819D01*
X102023809Y-100254819D02*
X102119047Y-100302438D01*
X102119047Y-100302438D02*
X102166666Y-100350057D01*
X102166666Y-100350057D02*
X102214285Y-100445295D01*
X102214285Y-100445295D02*
X102214285Y-100588152D01*
X102214285Y-100588152D02*
X102166666Y-100683390D01*
X102166666Y-100683390D02*
X102119047Y-100731009D01*
X102119047Y-100731009D02*
X102023809Y-100778628D01*
X102023809Y-100778628D02*
X101642857Y-100778628D01*
X103071428Y-100254819D02*
X102880952Y-100254819D01*
X102880952Y-100254819D02*
X102785714Y-100302438D01*
X102785714Y-100302438D02*
X102738095Y-100350057D01*
X102738095Y-100350057D02*
X102642857Y-100492914D01*
X102642857Y-100492914D02*
X102595238Y-100683390D01*
X102595238Y-100683390D02*
X102595238Y-101064342D01*
X102595238Y-101064342D02*
X102642857Y-101159580D01*
X102642857Y-101159580D02*
X102690476Y-101207200D01*
X102690476Y-101207200D02*
X102785714Y-101254819D01*
X102785714Y-101254819D02*
X102976190Y-101254819D01*
X102976190Y-101254819D02*
X103071428Y-101207200D01*
X103071428Y-101207200D02*
X103119047Y-101159580D01*
X103119047Y-101159580D02*
X103166666Y-101064342D01*
X103166666Y-101064342D02*
X103166666Y-100826247D01*
X103166666Y-100826247D02*
X103119047Y-100731009D01*
X103119047Y-100731009D02*
X103071428Y-100683390D01*
X103071428Y-100683390D02*
X102976190Y-100635771D01*
X102976190Y-100635771D02*
X102785714Y-100635771D01*
X102785714Y-100635771D02*
X102690476Y-100683390D01*
X102690476Y-100683390D02*
X102642857Y-100731009D01*
X102642857Y-100731009D02*
X102595238Y-100826247D01*
X100738095Y-103254819D02*
X101309523Y-103254819D01*
X101023809Y-104254819D02*
X101023809Y-103254819D01*
X101642857Y-104254819D02*
X101642857Y-103254819D01*
X101642857Y-103254819D02*
X102023809Y-103254819D01*
X102023809Y-103254819D02*
X102119047Y-103302438D01*
X102119047Y-103302438D02*
X102166666Y-103350057D01*
X102166666Y-103350057D02*
X102214285Y-103445295D01*
X102214285Y-103445295D02*
X102214285Y-103588152D01*
X102214285Y-103588152D02*
X102166666Y-103683390D01*
X102166666Y-103683390D02*
X102119047Y-103731009D01*
X102119047Y-103731009D02*
X102023809Y-103778628D01*
X102023809Y-103778628D02*
X101642857Y-103778628D01*
X102547619Y-103254819D02*
X103214285Y-103254819D01*
X103214285Y-103254819D02*
X102785714Y-104254819D01*
X134738095Y-98254819D02*
X135309523Y-98254819D01*
X135023809Y-99254819D02*
X135023809Y-98254819D01*
X135642857Y-99254819D02*
X135642857Y-98254819D01*
X135642857Y-98254819D02*
X136023809Y-98254819D01*
X136023809Y-98254819D02*
X136119047Y-98302438D01*
X136119047Y-98302438D02*
X136166666Y-98350057D01*
X136166666Y-98350057D02*
X136214285Y-98445295D01*
X136214285Y-98445295D02*
X136214285Y-98588152D01*
X136214285Y-98588152D02*
X136166666Y-98683390D01*
X136166666Y-98683390D02*
X136119047Y-98731009D01*
X136119047Y-98731009D02*
X136023809Y-98778628D01*
X136023809Y-98778628D02*
X135642857Y-98778628D01*
X136785714Y-98683390D02*
X136690476Y-98635771D01*
X136690476Y-98635771D02*
X136642857Y-98588152D01*
X136642857Y-98588152D02*
X136595238Y-98492914D01*
X136595238Y-98492914D02*
X136595238Y-98445295D01*
X136595238Y-98445295D02*
X136642857Y-98350057D01*
X136642857Y-98350057D02*
X136690476Y-98302438D01*
X136690476Y-98302438D02*
X136785714Y-98254819D01*
X136785714Y-98254819D02*
X136976190Y-98254819D01*
X136976190Y-98254819D02*
X137071428Y-98302438D01*
X137071428Y-98302438D02*
X137119047Y-98350057D01*
X137119047Y-98350057D02*
X137166666Y-98445295D01*
X137166666Y-98445295D02*
X137166666Y-98492914D01*
X137166666Y-98492914D02*
X137119047Y-98588152D01*
X137119047Y-98588152D02*
X137071428Y-98635771D01*
X137071428Y-98635771D02*
X136976190Y-98683390D01*
X136976190Y-98683390D02*
X136785714Y-98683390D01*
X136785714Y-98683390D02*
X136690476Y-98731009D01*
X136690476Y-98731009D02*
X136642857Y-98778628D01*
X136642857Y-98778628D02*
X136595238Y-98873866D01*
X136595238Y-98873866D02*
X136595238Y-99064342D01*
X136595238Y-99064342D02*
X136642857Y-99159580D01*
X136642857Y-99159580D02*
X136690476Y-99207200D01*
X136690476Y-99207200D02*
X136785714Y-99254819D01*
X136785714Y-99254819D02*
X136976190Y-99254819D01*
X136976190Y-99254819D02*
X137071428Y-99207200D01*
X137071428Y-99207200D02*
X137119047Y-99159580D01*
X137119047Y-99159580D02*
X137166666Y-99064342D01*
X137166666Y-99064342D02*
X137166666Y-98873866D01*
X137166666Y-98873866D02*
X137119047Y-98778628D01*
X137119047Y-98778628D02*
X137071428Y-98731009D01*
X137071428Y-98731009D02*
X136976190Y-98683390D01*
M02*
