%TF.GenerationSoftware,KiCad,Pcbnew,9.0.7*%
%TF.CreationDate,2026-02-23T13:29:16-05:00*%
%TF.ProjectId,afe-headstage-real,6166652d-6865-4616-9473-746167652d72,0.1*%
%TF.SameCoordinates,Original*%
%TF.FileFunction,Soldermask,Top*%
%TF.FilePolarity,Negative*%
%FSLAX46Y46*%
G04 Gerber Fmt 4.6, Leading zero omitted, Abs format (unit mm)*
G04 Created by KiCad (PCBNEW 9.0.7) date 2026-02-23 13:29:16*
%MOMM*%
%LPD*%
G01*
G04 APERTURE LIST*
G04 Aperture macros list*
%AMRoundRect*
0 Rectangle with rounded corners*
0 $1 Rounding radius*
0 $2 $3 $4 $5 $6 $7 $8 $9 X,Y pos of 4 corners*
0 Add a 4 corners polygon primitive as box body*
4,1,4,$2,$3,$4,$5,$6,$7,$8,$9,$2,$3,0*
0 Add four circle primitives for the rounded corners*
1,1,$1+$1,$2,$3*
1,1,$1+$1,$4,$5*
1,1,$1+$1,$6,$7*
1,1,$1+$1,$8,$9*
0 Add four rect primitives between the rounded corners*
20,1,$1+$1,$2,$3,$4,$5,0*
20,1,$1+$1,$4,$5,$6,$7,0*
20,1,$1+$1,$6,$7,$8,$9,0*
20,1,$1+$1,$8,$9,$2,$3,0*%
G04 Aperture macros list end*
%ADD10C,0.275000*%
%ADD11RoundRect,0.150000X-0.150000X-0.400000X0.150000X-0.400000X0.150000X0.400000X-0.150000X0.400000X0*%
%ADD12RoundRect,0.075000X-0.075000X-0.425000X0.075000X-0.425000X0.075000X0.425000X-0.075000X0.425000X0*%
%ADD13RoundRect,0.125000X-0.125000X-0.175000X0.125000X-0.175000X0.125000X0.175000X-0.125000X0.175000X0*%
%ADD14C,1.000000*%
G04 APERTURE END LIST*
D10*
%TO.C,U1*%
X123000000Y-96500000D03*
X123000000Y-97000000D03*
X116500000Y-97000000D03*
X116000000Y-91000000D03*
X116500000Y-91000000D03*
X117000000Y-91000000D03*
X117500000Y-91000000D03*
X124000000Y-91000000D03*
X119500000Y-97000000D03*
X116000000Y-96000000D03*
X123500000Y-96500000D03*
X124000000Y-96500000D03*
X116000000Y-97000000D03*
X118500000Y-97000000D03*
X122500000Y-97000000D03*
X119000000Y-97000000D03*
X121500000Y-97000000D03*
X124000000Y-97000000D03*
X120500000Y-97000000D03*
X117000000Y-97000000D03*
X117500000Y-97000000D03*
X118000000Y-97000000D03*
X123500000Y-97000000D03*
X116000000Y-94500000D03*
X116500000Y-94500000D03*
X117000000Y-94500000D03*
X117500000Y-94500000D03*
%TD*%
D11*
%TO.C,U2*%
X105050000Y-86950000D03*
X106000000Y-86950000D03*
X106950000Y-86950000D03*
X105050000Y-85050000D03*
%TD*%
D12*
%TO.C,J5*%
X116500000Y-117250000D03*
X116500000Y-118750000D03*
X117000000Y-117250000D03*
X117000000Y-118750000D03*
X117500000Y-117250000D03*
X117500000Y-118750000D03*
X118000000Y-117250000D03*
X118000000Y-118750000D03*
X118500000Y-117250000D03*
X118500000Y-118750000D03*
X119000000Y-117250000D03*
X119000000Y-118750000D03*
X119500000Y-117250000D03*
X119500000Y-118750000D03*
X120000000Y-117250000D03*
X120000000Y-118750000D03*
X120500000Y-117250000D03*
X120500000Y-118750000D03*
X121000000Y-117250000D03*
X121000000Y-118750000D03*
X121500000Y-117250000D03*
X121500000Y-118750000D03*
X122000000Y-117250000D03*
X122000000Y-118750000D03*
X122500000Y-117250000D03*
X122500000Y-118750000D03*
X123000000Y-117250000D03*
X123000000Y-118750000D03*
X123500000Y-117250000D03*
X123500000Y-118750000D03*
%TD*%
D13*
%TO.C,C1*%
X102520000Y-86000000D03*
X103480000Y-86000000D03*
%TD*%
%TO.C,C2*%
X109520000Y-86000000D03*
X110480000Y-86000000D03*
%TD*%
%TO.C,C3*%
X129520000Y-86000000D03*
X130480000Y-86000000D03*
%TD*%
%TO.C,C4*%
X131520000Y-94000000D03*
X132480000Y-94000000D03*
%TD*%
%TO.C,C5*%
X113520000Y-86000000D03*
X114480000Y-86000000D03*
%TD*%
%TO.C,FB1*%
X121520000Y-86000000D03*
X122480000Y-86000000D03*
%TD*%
%TO.C,R1*%
X105520000Y-96000000D03*
X106480000Y-96000000D03*
%TD*%
%TO.C,R2*%
X105520000Y-99000000D03*
X106480000Y-99000000D03*
%TD*%
%TO.C,R3*%
X105520000Y-102000000D03*
X106480000Y-102000000D03*
%TD*%
%TO.C,R4*%
X105520000Y-105000000D03*
X106480000Y-105000000D03*
%TD*%
%TO.C,R5*%
X131520000Y-100000000D03*
X132480000Y-100000000D03*
%TD*%
D14*
%TO.C,TP1*%
X110000000Y-82000000D03*
%TD*%
%TO.C,TP2*%
X128000000Y-82000000D03*
%TD*%
%TO.C,TP3*%
X116000000Y-82000000D03*
%TD*%
%TO.C,TP4*%
X102000000Y-96000000D03*
%TD*%
%TO.C,TP5*%
X102000000Y-99000000D03*
%TD*%
%TO.C,TP6*%
X102000000Y-102000000D03*
%TD*%
%TO.C,TP7*%
X102000000Y-105000000D03*
%TD*%
%TO.C,TP8*%
X136000000Y-100000000D03*
%TD*%
M02*
