%TF.GenerationSoftware,KiCad,Pcbnew,9.0.7*%
%TF.CreationDate,2026-03-01T20:21:27-05:00*%
%TF.ProjectId,afe-headstage-v1,6166652d-6865-4616-9473-746167652d76,1.0*%
%TF.SameCoordinates,Original*%
%TF.FileFunction,Copper,L1,Top*%
%TF.FilePolarity,Positive*%
%FSLAX46Y46*%
G04 Gerber Fmt 4.6, Leading zero omitted, Abs format (unit mm)*
G04 Created by KiCad (PCBNEW 9.0.7) date 2026-03-01 20:21:27*
%MOMM*%
%LPD*%
G01*
G04 APERTURE LIST*
G04 Aperture macros list*
%AMRoundRect*
0 Rectangle with rounded corners*
0 $1 Rounding radius*
0 $2 $3 $4 $5 $6 $7 $8 $9 X,Y pos of 4 corners*
0 Add a 4 corners polygon primitive as box body*
4,1,4,$2,$3,$4,$5,$6,$7,$8,$9,$2,$3,0*
0 Add four circle primitives for the rounded corners*
1,1,$1+$1,$2,$3*
1,1,$1+$1,$4,$5*
1,1,$1+$1,$6,$7*
1,1,$1+$1,$8,$9*
0 Add four rect primitives between the rounded corners*
20,1,$1+$1,$2,$3,$4,$5,0*
20,1,$1+$1,$4,$5,$6,$7,0*
20,1,$1+$1,$6,$7,$8,$9,0*
20,1,$1+$1,$8,$9,$2,$3,0*%
G04 Aperture macros list end*
%TA.AperFunction,SMDPad,CuDef*%
%ADD10RoundRect,0.062500X-0.387500X-0.062500X0.387500X-0.062500X0.387500X0.062500X-0.387500X0.062500X0*%
%TD*%
%TA.AperFunction,SMDPad,CuDef*%
%ADD11RoundRect,0.062500X-0.062500X-0.387500X0.062500X-0.387500X0.062500X0.387500X-0.062500X0.387500X0*%
%TD*%
%TA.AperFunction,SMDPad,CuDef*%
%ADD12RoundRect,0.240000X-2.160000X-2.160000X2.160000X-2.160000X2.160000X2.160000X-2.160000X2.160000X0*%
%TD*%
%TA.AperFunction,ComponentPad*%
%ADD13C,0.600000*%
%TD*%
%TA.AperFunction,SMDPad,CuDef*%
%ADD14RoundRect,0.095250X-0.095250X-0.285750X0.095250X-0.285750X0.095250X0.285750X-0.095250X0.285750X0*%
%TD*%
%TA.AperFunction,SMDPad,CuDef*%
%ADD15RoundRect,0.095250X-0.095250X-0.412750X0.095250X-0.412750X0.095250X0.412750X-0.095250X0.412750X0*%
%TD*%
%TA.AperFunction,SMDPad,CuDef*%
%ADD16RoundRect,0.125000X-0.125000X-0.175000X0.125000X-0.175000X0.125000X0.175000X-0.125000X0.175000X0*%
%TD*%
%TA.AperFunction,SMDPad,CuDef*%
%ADD17C,1.000000*%
%TD*%
%TA.AperFunction,ViaPad*%
%ADD18C,0.400000*%
%TD*%
%TA.AperFunction,Conductor*%
%ADD19C,0.150000*%
%TD*%
G04 APERTURE END LIST*
D10*
%TO.P,U1,1*%
%TO.N,CH8*%
X110950000Y-97250000D03*
%TO.P,U1,2*%
%TO.N,CH7*%
X110950000Y-96750000D03*
%TO.P,U1,3*%
%TO.N,CH6*%
X110950000Y-96250000D03*
%TO.P,U1,4*%
%TO.N,CH5*%
X110950000Y-95750000D03*
%TO.P,U1,5*%
%TO.N,CH4*%
X110950000Y-95250000D03*
%TO.P,U1,6*%
%TO.N,CH3*%
X110950000Y-94750000D03*
%TO.P,U1,7*%
%TO.N,CH2*%
X110950000Y-94250000D03*
%TO.P,U1,8*%
%TO.N,CH1*%
X110950000Y-93750000D03*
%TO.P,U1,9*%
%TO.N,CH0*%
X110950000Y-93250000D03*
%TO.P,U1,10*%
%TO.N,REF_ELEC*%
X110950000Y-92750000D03*
%TO.P,U1,11*%
%TO.N,GND*%
X110950000Y-92250000D03*
%TO.P,U1,12*%
X110950000Y-91750000D03*
%TO.P,U1,13*%
%TO.N,AVDD*%
X110950000Y-91250000D03*
%TO.P,U1,14*%
X110950000Y-90750000D03*
D11*
%TO.P,U1,15*%
X111750000Y-98050000D03*
%TO.P,U1,16*%
X112250000Y-98050000D03*
%TO.P,U1,17*%
%TO.N,GND*%
X112750000Y-98050000D03*
%TO.P,U1,18*%
X113250000Y-98050000D03*
%TO.P,U1,19*%
%TO.N,CS*%
X113750000Y-98050000D03*
%TO.P,U1,20*%
%TO.N,GND*%
X114250000Y-98050000D03*
%TO.P,U1,21*%
%TO.N,SCLK*%
X114750000Y-98050000D03*
%TO.P,U1,22*%
%TO.N,GND*%
X115250000Y-98050000D03*
%TO.P,U1,23*%
%TO.N,MOSI*%
X115750000Y-98050000D03*
%TO.P,U1,24*%
%TO.N,GND*%
X116250000Y-98050000D03*
%TO.P,U1,25*%
%TO.N,MISO*%
X116750000Y-98050000D03*
%TO.P,U1,26*%
%TO.N,AVDD*%
X117250000Y-98050000D03*
%TO.P,U1,27*%
%TO.N,unconnected-(U1-auxout-Pad27)*%
X117750000Y-98050000D03*
%TO.P,U1,28*%
%TO.N,ADC_ref*%
X118250000Y-98050000D03*
D10*
%TO.P,U1,29*%
%TO.N,GND*%
X119050000Y-90750000D03*
%TO.P,U1,30*%
X119050000Y-91250000D03*
%TO.P,U1,31*%
%TO.N,AVDD*%
X119050000Y-91750000D03*
%TO.P,U1,32*%
%TO.N,GND*%
X119050000Y-92250000D03*
%TO.P,U1,33*%
%TO.N,ELEC_TEST*%
X119050000Y-92750000D03*
%TO.P,U1,34*%
%TO.N,CH31*%
X119050000Y-93250000D03*
%TO.P,U1,35*%
%TO.N,CH30*%
X119050000Y-93750000D03*
%TO.P,U1,36*%
%TO.N,CH29*%
X119050000Y-94250000D03*
%TO.P,U1,37*%
%TO.N,CH28*%
X119050000Y-94750000D03*
%TO.P,U1,38*%
%TO.N,CH27*%
X119050000Y-95250000D03*
%TO.P,U1,39*%
%TO.N,CH26*%
X119050000Y-95750000D03*
%TO.P,U1,40*%
%TO.N,CH25*%
X119050000Y-96250000D03*
%TO.P,U1,41*%
%TO.N,CH24*%
X119050000Y-96750000D03*
%TO.P,U1,42*%
%TO.N,CH23*%
X119050000Y-97250000D03*
D11*
%TO.P,U1,43*%
%TO.N,CH22*%
X118250000Y-89950000D03*
%TO.P,U1,44*%
%TO.N,CH21*%
X117750000Y-89950000D03*
%TO.P,U1,45*%
%TO.N,CH20*%
X117250000Y-89950000D03*
%TO.P,U1,46*%
%TO.N,CH19*%
X116750000Y-89950000D03*
%TO.P,U1,47*%
%TO.N,CH18*%
X116250000Y-89950000D03*
%TO.P,U1,48*%
%TO.N,CH17*%
X115750000Y-89950000D03*
%TO.P,U1,49*%
%TO.N,CH16*%
X115250000Y-89950000D03*
%TO.P,U1,50*%
%TO.N,CH15*%
X114750000Y-89950000D03*
%TO.P,U1,51*%
%TO.N,CH14*%
X114250000Y-89950000D03*
%TO.P,U1,52*%
%TO.N,CH13*%
X113750000Y-89950000D03*
%TO.P,U1,53*%
%TO.N,CH12*%
X113250000Y-89950000D03*
%TO.P,U1,54*%
%TO.N,CH11*%
X112750000Y-89950000D03*
%TO.P,U1,55*%
%TO.N,CH10*%
X112250000Y-89950000D03*
%TO.P,U1,56*%
%TO.N,CH9*%
X111750000Y-89950000D03*
D12*
%TO.P,U1,EP*%
%TO.N,GND*%
X115000000Y-94000000D03*
D13*
X113600000Y-92600000D03*
X115000000Y-92600000D03*
X116400000Y-92600000D03*
X113600000Y-94000000D03*
X115000000Y-94000000D03*
X116400000Y-94000000D03*
X113600000Y-95400000D03*
X115000000Y-95400000D03*
X116400000Y-95400000D03*
%TD*%
D14*
%TO.P,J1,7*%
%TO.N,+3V3*%
X116587500Y-82484000D03*
%TO.P,J1,8*%
X115952500Y-82484000D03*
%TO.P,J1,9*%
%TO.N,AVDD*%
X115317500Y-82484000D03*
%TO.P,J1,10*%
X114682500Y-82484000D03*
%TO.P,J1,11*%
%TO.N,unconnected-(J1-MISO2-Pad11)*%
X114047500Y-82484000D03*
%TO.P,J1,12*%
%TO.N,GND*%
X113412500Y-82484000D03*
D15*
%TO.P,J1,1*%
%TO.N,MISO*%
X116587500Y-81341000D03*
%TO.P,J1,2*%
%TO.N,MOSI_J*%
X115952500Y-81341000D03*
%TO.P,J1,3*%
%TO.N,SCLK_J*%
X115317500Y-81341000D03*
%TO.P,J1,4*%
%TO.N,CS_J*%
X114682500Y-81341000D03*
%TO.P,J1,5*%
%TO.N,GND*%
X114047500Y-81341000D03*
%TO.P,J1,6*%
X113412500Y-81341000D03*
%TD*%
%TO.P,J5,1*%
%TO.N,CH0*%
X109602500Y-99341000D03*
D14*
%TO.P,J5,2*%
%TO.N,CH1*%
X109602500Y-100484000D03*
D15*
%TO.P,J5,3*%
%TO.N,CH2*%
X110237500Y-99341000D03*
D14*
%TO.P,J5,4*%
%TO.N,CH3*%
X110237500Y-100484000D03*
D15*
%TO.P,J5,5*%
%TO.N,CH4*%
X110872500Y-99341000D03*
D14*
%TO.P,J5,6*%
%TO.N,CH5*%
X110872500Y-100484000D03*
D15*
%TO.P,J5,7*%
%TO.N,CH6*%
X111507500Y-99341000D03*
D14*
%TO.P,J5,8*%
%TO.N,CH7*%
X111507500Y-100484000D03*
D15*
%TO.P,J5,9*%
%TO.N,CH8*%
X112142500Y-99341000D03*
D14*
%TO.P,J5,10*%
%TO.N,CH9*%
X112142500Y-100484000D03*
D15*
%TO.P,J5,11*%
%TO.N,CH10*%
X112777500Y-99341000D03*
D14*
%TO.P,J5,12*%
%TO.N,CH11*%
X112777500Y-100484000D03*
D15*
%TO.P,J5,13*%
%TO.N,CH12*%
X113412500Y-99341000D03*
D14*
%TO.P,J5,14*%
%TO.N,CH13*%
X113412500Y-100484000D03*
D15*
%TO.P,J5,15*%
%TO.N,CH14*%
X114047500Y-99341000D03*
D14*
%TO.P,J5,16*%
%TO.N,CH15*%
X114047500Y-100484000D03*
D15*
%TO.P,J5,17*%
%TO.N,CH16*%
X114682500Y-99341000D03*
D14*
%TO.P,J5,18*%
%TO.N,CH17*%
X114682500Y-100484000D03*
D15*
%TO.P,J5,19*%
%TO.N,CH18*%
X115317500Y-99341000D03*
D14*
%TO.P,J5,20*%
%TO.N,CH19*%
X115317500Y-100484000D03*
D15*
%TO.P,J5,21*%
%TO.N,CH20*%
X115952500Y-99341000D03*
D14*
%TO.P,J5,22*%
%TO.N,CH21*%
X115952500Y-100484000D03*
D15*
%TO.P,J5,23*%
%TO.N,CH22*%
X116587500Y-99341000D03*
D14*
%TO.P,J5,24*%
%TO.N,CH23*%
X116587500Y-100484000D03*
D15*
%TO.P,J5,25*%
%TO.N,CH24*%
X117222500Y-99341000D03*
D14*
%TO.P,J5,26*%
%TO.N,CH25*%
X117222500Y-100484000D03*
D15*
%TO.P,J5,27*%
%TO.N,CH26*%
X117857500Y-99341000D03*
D14*
%TO.P,J5,28*%
%TO.N,CH27*%
X117857500Y-100484000D03*
D15*
%TO.P,J5,29*%
%TO.N,CH28*%
X118492500Y-99341000D03*
D14*
%TO.P,J5,30*%
%TO.N,CH29*%
X118492500Y-100484000D03*
D15*
%TO.P,J5,31*%
%TO.N,CH30*%
X119127500Y-99341000D03*
D14*
%TO.P,J5,32*%
%TO.N,CH31*%
X119127500Y-100484000D03*
D15*
%TO.P,J5,33*%
%TO.N,REF_ELEC*%
X119762500Y-99341000D03*
D14*
%TO.P,J5,34*%
%TO.N,GND*%
X119762500Y-100484000D03*
D15*
%TO.P,J5,35*%
%TO.N,ELEC_TEST*%
X120397500Y-99341000D03*
D14*
%TO.P,J5,36*%
%TO.N,GND*%
X120397500Y-100484000D03*
%TD*%
D16*
%TO.P,FB1,1*%
%TO.N,+3V3*%
X107520000Y-84000000D03*
%TO.P,FB1,2*%
%TO.N,AVDD*%
X108480000Y-84000000D03*
%TD*%
%TO.P,C1,1*%
%TO.N,+3V3*%
X105520000Y-84000000D03*
%TO.P,C1,2*%
%TO.N,GND*%
X106480000Y-84000000D03*
%TD*%
%TO.P,C2,1*%
%TO.N,+3V3*%
X103520000Y-88500000D03*
%TO.P,C2,2*%
%TO.N,GND*%
X104480000Y-88500000D03*
%TD*%
%TO.P,C3,1*%
%TO.N,AVDD*%
X109520000Y-84000000D03*
%TO.P,C3,2*%
%TO.N,GND*%
X110480000Y-84000000D03*
%TD*%
%TO.P,C4,1*%
%TO.N,AVDD*%
X111520000Y-84000000D03*
%TO.P,C4,2*%
%TO.N,GND*%
X112480000Y-84000000D03*
%TD*%
%TO.P,C5,1*%
%TO.N,AVDD*%
X109020000Y-97000000D03*
%TO.P,C5,2*%
%TO.N,GND*%
X109980000Y-97000000D03*
%TD*%
%TO.P,C6,1*%
%TO.N,AVDD*%
X120520000Y-95500000D03*
%TO.P,C6,2*%
%TO.N,GND*%
X121480000Y-95500000D03*
%TD*%
%TO.P,C7,1*%
%TO.N,ADC_ref*%
X120520000Y-97000000D03*
%TO.P,C7,2*%
%TO.N,GND*%
X121480000Y-97000000D03*
%TD*%
%TO.P,R1,1*%
%TO.N,GND*%
X109020000Y-95000000D03*
%TO.P,R1,2*%
%TO.N,REF_ELEC*%
X109980000Y-95000000D03*
%TD*%
%TO.P,R2,1*%
%TO.N,CS_J*%
X117520000Y-85000000D03*
%TO.P,R2,2*%
%TO.N,CS*%
X118480000Y-85000000D03*
%TD*%
%TO.P,R3,1*%
%TO.N,SCLK_J*%
X114520000Y-85000000D03*
%TO.P,R3,2*%
%TO.N,SCLK*%
X115480000Y-85000000D03*
%TD*%
%TO.P,R4,1*%
%TO.N,MOSI_J*%
X111520000Y-85000000D03*
%TO.P,R4,2*%
%TO.N,MOSI*%
X112480000Y-85000000D03*
%TD*%
D17*
%TO.P,TP1,1*%
%TO.N,+3V3*%
X102000000Y-84000000D03*
%TD*%
%TO.P,TP2,1*%
%TO.N,AVDD*%
X102000000Y-87000000D03*
%TD*%
%TO.P,TP3,1*%
%TO.N,GND*%
X102000000Y-90000000D03*
%TD*%
%TO.P,TP4,1*%
%TO.N,SCLK*%
X128000000Y-84000000D03*
%TD*%
%TO.P,TP5,1*%
%TO.N,MISO*%
X128000000Y-87000000D03*
%TD*%
%TO.P,TP6,1*%
%TO.N,REF_ELEC*%
X128000000Y-90000000D03*
%TD*%
%TO.P,TP7,1*%
%TO.N,CH0*%
X102000000Y-94000000D03*
%TD*%
%TO.P,TP8,1*%
%TO.N,CH1*%
X102000000Y-96000000D03*
%TD*%
%TO.P,TP9,1*%
%TO.N,CH2*%
X102000000Y-98000000D03*
%TD*%
%TO.P,TP10,1*%
%TO.N,CH3*%
X102000000Y-100000000D03*
%TD*%
D18*
%TO.N,CH16*%
X125405000Y-97141000D03*
X114682500Y-99341000D03*
%TO.N,CH17*%
X124855000Y-102134000D03*
X114682500Y-100484000D03*
%TO.N,CH18*%
X124305000Y-97691000D03*
X115317500Y-99341000D03*
%TO.N,CH19*%
X123755000Y-101584000D03*
X115317500Y-100484000D03*
%TO.N,CH20*%
X123205000Y-98241000D03*
X115952500Y-99341000D03*
%TO.N,CH21*%
X122655000Y-101034000D03*
X115952500Y-100484000D03*
%TO.N,CH22*%
X122105000Y-98791000D03*
X116587500Y-99341000D03*
%TO.N,CH15*%
X105095000Y-102684000D03*
X114047500Y-100484000D03*
%TO.N,CH14*%
X105645000Y-97691000D03*
X114047500Y-99341000D03*
%TO.N,CH13*%
X106195000Y-102134000D03*
X113412500Y-100484000D03*
%TO.N,CH12*%
X106745000Y-98241000D03*
X113412500Y-99341000D03*
%TO.N,CH11*%
X107295000Y-101584000D03*
X112777500Y-100484000D03*
%TO.N,CH10*%
X107845000Y-98791000D03*
X112777500Y-99341000D03*
%TO.N,CH9*%
X108395000Y-101034000D03*
X112142500Y-100484000D03*
%TD*%
D19*
%TO.N,CH16*%
X115250000Y-89950000D02*
X115250000Y-89500000D01*
X115250000Y-89500000D02*
X115250000Y-85825000D01*
X115250000Y-85825000D02*
X125405000Y-85825000D01*
X125405000Y-85825000D02*
X125405000Y-98875000D01*
X125405000Y-98875000D02*
X125405000Y-97141000D01*
%TO.N,CH17*%
X115750000Y-89950000D02*
X115750000Y-89500000D01*
X115750000Y-89500000D02*
X115750000Y-86375000D01*
X115750000Y-86375000D02*
X124855000Y-86375000D01*
X124855000Y-86375000D02*
X124855000Y-98875000D01*
X124855000Y-98875000D02*
X124855000Y-102134000D01*
%TO.N,CH18*%
X116250000Y-89950000D02*
X116250000Y-89500000D01*
X116250000Y-89500000D02*
X116250000Y-86925000D01*
X116250000Y-86925000D02*
X124305000Y-86925000D01*
X124305000Y-86925000D02*
X124305000Y-98875000D01*
X124305000Y-98875000D02*
X124305000Y-97691000D01*
%TO.N,CH19*%
X116750000Y-89950000D02*
X116750000Y-89500000D01*
X116750000Y-89500000D02*
X116750000Y-87475000D01*
X116750000Y-87475000D02*
X123755000Y-87475000D01*
X123755000Y-87475000D02*
X123755000Y-98875000D01*
X123755000Y-98875000D02*
X123755000Y-101584000D01*
%TO.N,CH20*%
X117250000Y-89950000D02*
X117250000Y-89500000D01*
X117250000Y-89500000D02*
X117250000Y-88025000D01*
X117250000Y-88025000D02*
X123205000Y-88025000D01*
X123205000Y-88025000D02*
X123205000Y-98875000D01*
X123205000Y-98875000D02*
X123205000Y-98241000D01*
%TO.N,CH21*%
X117750000Y-89950000D02*
X117750000Y-89500000D01*
X117750000Y-89500000D02*
X117750000Y-88575000D01*
X117750000Y-88575000D02*
X122655000Y-88575000D01*
X122655000Y-88575000D02*
X122655000Y-98875000D01*
X122655000Y-98875000D02*
X122655000Y-101034000D01*
%TO.N,CH22*%
X118250000Y-89950000D02*
X118250000Y-89500000D01*
X118250000Y-89500000D02*
X118250000Y-89125000D01*
X118250000Y-89125000D02*
X122105000Y-89125000D01*
X122105000Y-89125000D02*
X122105000Y-98875000D01*
X122105000Y-98875000D02*
X122105000Y-98791000D01*
%TO.N,CH15*%
X114750000Y-89950000D02*
X114750000Y-89500000D01*
X114750000Y-89500000D02*
X114750000Y-85825000D01*
X114750000Y-85825000D02*
X105095000Y-85825000D01*
X105095000Y-85825000D02*
X105095000Y-98875000D01*
X105095000Y-98875000D02*
X105095000Y-102684000D01*
%TO.N,CH14*%
X114250000Y-89950000D02*
X114250000Y-89500000D01*
X114250000Y-89500000D02*
X114250000Y-86375000D01*
X114250000Y-86375000D02*
X105645000Y-86375000D01*
X105645000Y-86375000D02*
X105645000Y-98875000D01*
X105645000Y-98875000D02*
X105645000Y-97691000D01*
%TO.N,CH13*%
X113750000Y-89950000D02*
X113750000Y-89500000D01*
X113750000Y-89500000D02*
X113750000Y-86925000D01*
X113750000Y-86925000D02*
X106195000Y-86925000D01*
X106195000Y-86925000D02*
X106195000Y-98875000D01*
X106195000Y-98875000D02*
X106195000Y-102134000D01*
%TO.N,CH12*%
X113250000Y-89950000D02*
X113250000Y-89500000D01*
X113250000Y-89500000D02*
X113250000Y-87475000D01*
X113250000Y-87475000D02*
X106745000Y-87475000D01*
X106745000Y-87475000D02*
X106745000Y-98875000D01*
X106745000Y-98875000D02*
X106745000Y-98241000D01*
%TO.N,CH11*%
X112750000Y-89950000D02*
X112750000Y-89500000D01*
X112750000Y-89500000D02*
X112750000Y-88025000D01*
X112750000Y-88025000D02*
X107295000Y-88025000D01*
X107295000Y-88025000D02*
X107295000Y-98875000D01*
X107295000Y-98875000D02*
X107295000Y-101584000D01*
%TO.N,CH10*%
X112250000Y-89950000D02*
X112250000Y-89500000D01*
X112250000Y-89500000D02*
X112250000Y-88575000D01*
X112250000Y-88575000D02*
X107845000Y-88575000D01*
X107845000Y-88575000D02*
X107845000Y-98875000D01*
X107845000Y-98875000D02*
X107845000Y-98791000D01*
%TO.N,CH9*%
X111750000Y-89950000D02*
X111750000Y-89500000D01*
X111750000Y-89500000D02*
X111750000Y-89125000D01*
X111750000Y-89125000D02*
X108395000Y-89125000D01*
X108395000Y-89125000D02*
X108395000Y-98875000D01*
X108395000Y-98875000D02*
X108395000Y-101034000D01*
%TD*%
M02*
