solid OpenSCAD_Model
  facet normal 1 -0 0
    outer loop
      vertex 15.25 -12.25 2
      vertex 15.25 12.25 0
      vertex 15.25 12.25 2
    endloop
  endfacet
  facet normal 1 0 0
    outer loop
      vertex 15.25 12.25 0
      vertex 15.25 -12.25 2
      vertex 15.25 -12.25 0
    endloop
  endfacet
  facet normal 0 0 -1
    outer loop
      vertex -14.05 -11.05 2
      vertex 14.05 11.05 2
      vertex 14.05 -11.05 2
    endloop
  endfacet
  facet normal -0 0 -1
    outer loop
      vertex 14.05 11.05 2
      vertex -14.05 -11.05 2
      vertex -14.05 11.05 2
    endloop
  endfacet
  facet normal 0 0 -1
    outer loop
      vertex 15.25 -12.25 2
      vertex 16.6 -12.1 2
      vertex 16.5815 -12.3347 2
    endloop
  endfacet
  facet normal -0 0 -1
    outer loop
      vertex 16.6 -12.1 2
      vertex 15.25 -12.25 2
      vertex 16.6 12.1 2
    endloop
  endfacet
  facet normal 0 0 -1
    outer loop
      vertex 15.25 -12.25 2
      vertex 16.5815 -12.3347 2
      vertex 16.5266 -12.5635 2
    endloop
  endfacet
  facet normal 0 0 -1
    outer loop
      vertex 15.25 12.25 2
      vertex 16.6 12.1 2
      vertex 15.25 -12.25 2
    endloop
  endfacet
  facet normal 0 0 -1
    outer loop
      vertex 15.25 -12.25 2
      vertex 16.5266 -12.5635 2
      vertex 16.4365 -12.781 2
    endloop
  endfacet
  facet normal 0 0 -1
    outer loop
      vertex 16.6 12.1 2
      vertex 15.25 12.25 2
      vertex 16.5815 12.3347 2
    endloop
  endfacet
  facet normal 0 0 -1
    outer loop
      vertex 15.25 -12.25 2
      vertex 16.4365 -12.781 2
      vertex 16.3135 -12.9817 2
    endloop
  endfacet
  facet normal -0 0 -1
    outer loop
      vertex 16.5815 12.3347 2
      vertex 15.25 12.25 2
      vertex 16.5266 12.5635 2
    endloop
  endfacet
  facet normal 0 0 -1
    outer loop
      vertex 15.25 -12.25 2
      vertex 16.3135 -12.9817 2
      vertex 16.1607 -13.1607 2
    endloop
  endfacet
  facet normal -0 0 -1
    outer loop
      vertex 16.5266 12.5635 2
      vertex 15.25 12.25 2
      vertex 16.4365 12.781 2
    endloop
  endfacet
  facet normal 0 0 -1
    outer loop
      vertex 15.25 -12.25 2
      vertex 16.1607 -13.1607 2
      vertex 15.9817 -13.3135 2
    endloop
  endfacet
  facet normal -0 0 -1
    outer loop
      vertex 16.4365 12.781 2
      vertex 15.25 12.25 2
      vertex 16.3135 12.9817 2
    endloop
  endfacet
  facet normal 0 0 -1
    outer loop
      vertex 15.25 -12.25 2
      vertex 15.9817 -13.3135 2
      vertex 15.781 -13.4365 2
    endloop
  endfacet
  facet normal -0 0 -1
    outer loop
      vertex 16.3135 12.9817 2
      vertex 15.25 12.25 2
      vertex 16.1607 13.1607 2
    endloop
  endfacet
  facet normal 0 0 -1
    outer loop
      vertex 15.25 -12.25 2
      vertex 15.781 -13.4365 2
      vertex 15.5635 -13.5266 2
    endloop
  endfacet
  facet normal -0 0 -1
    outer loop
      vertex 16.1607 13.1607 2
      vertex 15.25 12.25 2
      vertex 15.9817 13.3135 2
    endloop
  endfacet
  facet normal 0 0 -1
    outer loop
      vertex 15.25 -12.25 2
      vertex 15.5635 -13.5266 2
      vertex 15.3347 -13.5815 2
    endloop
  endfacet
  facet normal -0 0 -1
    outer loop
      vertex 15.9817 13.3135 2
      vertex 15.25 12.25 2
      vertex 15.781 13.4365 2
    endloop
  endfacet
  facet normal -0 0 -1
    outer loop
      vertex 15.781 13.4365 2
      vertex 15.25 12.25 2
      vertex 15.5635 13.5266 2
    endloop
  endfacet
  facet normal 0 0 -1
    outer loop
      vertex 15.1 -13.6 2
      vertex 15.25 -12.25 2
      vertex 15.3347 -13.5815 2
    endloop
  endfacet
  facet normal 0 0 -1
    outer loop
      vertex -15.1 -13.6 2
      vertex 15.25 -12.25 2
      vertex 15.1 -13.6 2
    endloop
  endfacet
  facet normal 0 0 -1
    outer loop
      vertex -15.1 -13.6 2
      vertex -15.25 -12.25 2
      vertex 15.25 -12.25 2
    endloop
  endfacet
  facet normal 0 0 -1
    outer loop
      vertex -15.5635 -13.5266 2
      vertex -15.25 -12.25 2
      vertex -15.3347 -13.5815 2
    endloop
  endfacet
  facet normal 0 0 -1
    outer loop
      vertex -15.3347 -13.5815 2
      vertex -15.25 -12.25 2
      vertex -15.1 -13.6 2
    endloop
  endfacet
  facet normal -0 0 -1
    outer loop
      vertex 15.5635 13.5266 2
      vertex 15.25 12.25 2
      vertex 15.3347 13.5815 2
    endloop
  endfacet
  facet normal 0 0 -1
    outer loop
      vertex 15.25 12.25 2
      vertex 15.1 13.6 2
      vertex 15.3347 13.5815 2
    endloop
  endfacet
  facet normal 0 0 -1
    outer loop
      vertex 15.25 12.25 2
      vertex -15.1 13.6 2
      vertex 15.1 13.6 2
    endloop
  endfacet
  facet normal 0 0 -1
    outer loop
      vertex -15.25 12.25 2
      vertex -15.1 13.6 2
      vertex 15.25 12.25 2
    endloop
  endfacet
  facet normal 0 0 -1
    outer loop
      vertex -15.25 12.25 2
      vertex -15.3347 13.5815 2
      vertex -15.1 13.6 2
    endloop
  endfacet
  facet normal 0 0 -1
    outer loop
      vertex -15.25 -12.25 2
      vertex -16.6 -12.1 2
      vertex -15.25 12.25 2
    endloop
  endfacet
  facet normal 0 0 -1
    outer loop
      vertex -15.781 -13.4365 2
      vertex -15.25 -12.25 2
      vertex -15.5635 -13.5266 2
    endloop
  endfacet
  facet normal 0 0 -1
    outer loop
      vertex -16.6 12.1 2
      vertex -15.25 12.25 2
      vertex -16.6 -12.1 2
    endloop
  endfacet
  facet normal 0 0 -1
    outer loop
      vertex -15.9817 -13.3135 2
      vertex -15.25 -12.25 2
      vertex -15.781 -13.4365 2
    endloop
  endfacet
  facet normal 0 -0 -1
    outer loop
      vertex -16.5815 12.3347 2
      vertex -15.25 12.25 2
      vertex -16.6 12.1 2
    endloop
  endfacet
  facet normal 0 0 -1
    outer loop
      vertex -16.1607 -13.1607 2
      vertex -15.25 -12.25 2
      vertex -15.9817 -13.3135 2
    endloop
  endfacet
  facet normal 0 0 -1
    outer loop
      vertex -15.25 12.25 2
      vertex -15.5635 13.5266 2
      vertex -15.3347 13.5815 2
    endloop
  endfacet
  facet normal 0 0 -1
    outer loop
      vertex -16.3135 -12.9817 2
      vertex -15.25 -12.25 2
      vertex -16.1607 -13.1607 2
    endloop
  endfacet
  facet normal 0 0 -1
    outer loop
      vertex -15.25 12.25 2
      vertex -15.781 13.4365 2
      vertex -15.5635 13.5266 2
    endloop
  endfacet
  facet normal 0 0 -1
    outer loop
      vertex -16.4365 -12.781 2
      vertex -15.25 -12.25 2
      vertex -16.3135 -12.9817 2
    endloop
  endfacet
  facet normal 0 0 -1
    outer loop
      vertex -15.25 12.25 2
      vertex -15.9817 13.3135 2
      vertex -15.781 13.4365 2
    endloop
  endfacet
  facet normal 0 0 -1
    outer loop
      vertex -16.5266 -12.5635 2
      vertex -15.25 -12.25 2
      vertex -16.4365 -12.781 2
    endloop
  endfacet
  facet normal 0 0 -1
    outer loop
      vertex -15.25 12.25 2
      vertex -16.1607 13.1607 2
      vertex -15.9817 13.3135 2
    endloop
  endfacet
  facet normal 0 0 -1
    outer loop
      vertex -16.5815 -12.3347 2
      vertex -15.25 -12.25 2
      vertex -16.5266 -12.5635 2
    endloop
  endfacet
  facet normal 0 0 -1
    outer loop
      vertex -15.25 12.25 2
      vertex -16.3135 12.9817 2
      vertex -16.1607 13.1607 2
    endloop
  endfacet
  facet normal -0 0 -1
    outer loop
      vertex -15.25 -12.25 2
      vertex -16.5815 -12.3347 2
      vertex -16.6 -12.1 2
    endloop
  endfacet
  facet normal 0 0 -1
    outer loop
      vertex -15.25 12.25 2
      vertex -16.4365 12.781 2
      vertex -16.3135 12.9817 2
    endloop
  endfacet
  facet normal 0 0 -1
    outer loop
      vertex -15.25 12.25 2
      vertex -16.5266 12.5635 2
      vertex -16.4365 12.781 2
    endloop
  endfacet
  facet normal 0 0 -1
    outer loop
      vertex -15.25 12.25 2
      vertex -16.5815 12.3347 2
      vertex -16.5266 12.5635 2
    endloop
  endfacet
  facet normal 0 0 -1
    outer loop
      vertex 15.25 -12.25 0
      vertex 14.05 -11.05 0
      vertex 15.25 12.25 0
    endloop
  endfacet
  facet normal 0 0 -1
    outer loop
      vertex 15.25 -12.25 0
      vertex -14.05 -11.05 0
      vertex 14.05 -11.05 0
    endloop
  endfacet
  facet normal -0 0 -1
    outer loop
      vertex -14.05 -11.05 0
      vertex -15.25 -12.25 0
      vertex -14.05 11.05 0
    endloop
  endfacet
  facet normal 0 0 -1
    outer loop
      vertex -15.25 -12.25 0
      vertex -14.05 -11.05 0
      vertex 15.25 -12.25 0
    endloop
  endfacet
  facet normal 0 0 -1
    outer loop
      vertex 14.05 11.05 0
      vertex 15.25 12.25 0
      vertex 14.05 -11.05 0
    endloop
  endfacet
  facet normal 0 0 -1
    outer loop
      vertex -14.05 11.05 0
      vertex 15.25 12.25 0
      vertex 14.05 11.05 0
    endloop
  endfacet
  facet normal 0 0 -1
    outer loop
      vertex -14.05 11.05 0
      vertex -15.25 12.25 0
      vertex 15.25 12.25 0
    endloop
  endfacet
  facet normal 0 0 -1
    outer loop
      vertex -15.25 12.25 0
      vertex -14.05 11.05 0
      vertex -15.25 -12.25 0
    endloop
  endfacet
  facet normal -1 0 0
    outer loop
      vertex -15.25 -12.25 0
      vertex -15.25 12.25 2
      vertex -15.25 12.25 0
    endloop
  endfacet
  facet normal -1 -0 0
    outer loop
      vertex -15.25 12.25 2
      vertex -15.25 -12.25 0
      vertex -15.25 -12.25 2
    endloop
  endfacet
  facet normal 0 1 -0
    outer loop
      vertex 15.25 12.25 0
      vertex -15.25 12.25 2
      vertex 15.25 12.25 2
    endloop
  endfacet
  facet normal 0 1 0
    outer loop
      vertex -15.25 12.25 2
      vertex 15.25 12.25 0
      vertex -15.25 12.25 0
    endloop
  endfacet
  facet normal 0 -1 0
    outer loop
      vertex -15.25 -12.25 0
      vertex 15.25 -12.25 2
      vertex -15.25 -12.25 2
    endloop
  endfacet
  facet normal 0 -1 -0
    outer loop
      vertex 15.25 -12.25 2
      vertex -15.25 -12.25 0
      vertex 15.25 -12.25 0
    endloop
  endfacet
  facet normal -1 0 0
    outer loop
      vertex 14.05 -11.05 0
      vertex 14.05 11.05 2
      vertex 14.05 11.05 0
    endloop
  endfacet
  facet normal -1 -0 0
    outer loop
      vertex 14.05 11.05 2
      vertex 14.05 -11.05 0
      vertex 14.05 -11.05 2
    endloop
  endfacet
  facet normal 1 -0 0
    outer loop
      vertex -14.05 -11.05 2
      vertex -14.05 11.05 0
      vertex -14.05 11.05 2
    endloop
  endfacet
  facet normal 1 0 0
    outer loop
      vertex -14.05 11.05 0
      vertex -14.05 -11.05 2
      vertex -14.05 -11.05 0
    endloop
  endfacet
  facet normal 0 -1 0
    outer loop
      vertex -14.05 11.05 0
      vertex 14.05 11.05 2
      vertex -14.05 11.05 2
    endloop
  endfacet
  facet normal 0 -1 -0
    outer loop
      vertex 14.05 11.05 2
      vertex -14.05 11.05 0
      vertex 14.05 11.05 0
    endloop
  endfacet
  facet normal 0 1 -0
    outer loop
      vertex 14.05 -11.05 0
      vertex -14.05 -11.05 2
      vertex 14.05 -11.05 2
    endloop
  endfacet
  facet normal 0 1 0
    outer loop
      vertex -14.05 -11.05 2
      vertex 14.05 -11.05 0
      vertex -14.05 -11.05 0
    endloop
  endfacet
  facet normal -0.64925 -0.760575 0
    outer loop
      vertex -16.1607 -13.1607 2
      vertex -15.9817 -13.3135 3.2
      vertex -16.1607 -13.1607 3.2
    endloop
  endfacet
  facet normal -0.64925 -0.760575 -0
    outer loop
      vertex -15.9817 -13.3135 3.2
      vertex -16.1607 -13.1607 2
      vertex -15.9817 -13.3135 2
    endloop
  endfacet
  facet normal 0 -1 0
    outer loop
      vertex -15.1 -13.6 2
      vertex 15.1 -13.6 3.2
      vertex -15.1 -13.6 3.2
    endloop
  endfacet
  facet normal 0 -1 -0
    outer loop
      vertex 15.1 -13.6 3.2
      vertex -15.1 -13.6 2
      vertex 15.1 -13.6 2
    endloop
  endfacet
  facet normal 0.923867 -0.382714 0
    outer loop
      vertex 16.4365 -12.781 3.2
      vertex 16.5266 -12.5635 2
      vertex 16.5266 -12.5635 3.2
    endloop
  endfacet
  facet normal 0.923867 -0.382714 0
    outer loop
      vertex 16.5266 -12.5635 2
      vertex 16.4365 -12.781 3.2
      vertex 16.4365 -12.781 2
    endloop
  endfacet
  facet normal -0.64925 0.760575 0
    outer loop
      vertex -15.9817 13.3135 2
      vertex -16.1607 13.1607 3.2
      vertex -15.9817 13.3135 3.2
    endloop
  endfacet
  facet normal -0.64925 0.760575 0
    outer loop
      vertex -16.1607 13.1607 3.2
      vertex -15.9817 13.3135 2
      vertex -16.1607 13.1607 2
    endloop
  endfacet
  facet normal 0.64925 -0.760575 0
    outer loop
      vertex 15.9817 -13.3135 2
      vertex 16.1607 -13.1607 3.2
      vertex 15.9817 -13.3135 3.2
    endloop
  endfacet
  facet normal 0.64925 -0.760575 0
    outer loop
      vertex 16.1607 -13.1607 3.2
      vertex 15.9817 -13.3135 2
      vertex 16.1607 -13.1607 2
    endloop
  endfacet
  facet normal 0.64925 0.760575 -0
    outer loop
      vertex 16.1607 13.1607 2
      vertex 15.9817 13.3135 3.2
      vertex 16.1607 13.1607 3.2
    endloop
  endfacet
  facet normal 0.64925 0.760575 0
    outer loop
      vertex 15.9817 13.3135 3.2
      vertex 16.1607 13.1607 2
      vertex 15.9817 13.3135 2
    endloop
  endfacet
  facet normal -0.996908 -0.0785803 0
    outer loop
      vertex -16.5815 -12.3347 2
      vertex -16.6 -12.1 3.2
      vertex -16.6 -12.1 2
    endloop
  endfacet
  facet normal -0.996908 -0.0785803 0
    outer loop
      vertex -16.6 -12.1 3.2
      vertex -16.5815 -12.3347 2
      vertex -16.5815 -12.3347 3.2
    endloop
  endfacet
  facet normal 0.996908 0.0785803 0
    outer loop
      vertex 16.6 12.1 3.2
      vertex 16.5815 12.3347 2
      vertex 16.5815 12.3347 3.2
    endloop
  endfacet
  facet normal 0.996908 0.0785803 0
    outer loop
      vertex 16.5815 12.3347 2
      vertex 16.6 12.1 3.2
      vertex 16.6 12.1 2
    endloop
  endfacet
  facet normal 0.0785803 0.996908 -0
    outer loop
      vertex 15.3347 13.5815 2
      vertex 15.1 13.6 3.2
      vertex 15.3347 13.5815 3.2
    endloop
  endfacet
  facet normal 0.0785803 0.996908 0
    outer loop
      vertex 15.1 13.6 3.2
      vertex 15.3347 13.5815 2
      vertex 15.1 13.6 2
    endloop
  endfacet
  facet normal -0.382714 0.923867 0
    outer loop
      vertex -15.5635 13.5266 2
      vertex -15.781 13.4365 3.2
      vertex -15.5635 13.5266 3.2
    endloop
  endfacet
  facet normal -0.382714 0.923867 0
    outer loop
      vertex -15.781 13.4365 3.2
      vertex -15.5635 13.5266 2
      vertex -15.781 13.4365 2
    endloop
  endfacet
  facet normal 0.382714 0.923867 -0
    outer loop
      vertex 15.781 13.4365 2
      vertex 15.5635 13.5266 3.2
      vertex 15.781 13.4365 3.2
    endloop
  endfacet
  facet normal 0.382714 0.923867 0
    outer loop
      vertex 15.5635 13.5266 3.2
      vertex 15.781 13.4365 2
      vertex 15.5635 13.5266 2
    endloop
  endfacet
  facet normal 0.522532 -0.85262 0
    outer loop
      vertex 15.781 -13.4365 2
      vertex 15.9817 -13.3135 3.2
      vertex 15.781 -13.4365 3.2
    endloop
  endfacet
  facet normal 0.522532 -0.85262 0
    outer loop
      vertex 15.9817 -13.3135 3.2
      vertex 15.781 -13.4365 2
      vertex 15.9817 -13.3135 2
    endloop
  endfacet
  facet normal 0 1 -0
    outer loop
      vertex 15.1 13.6 2
      vertex -15.1 13.6 3.2
      vertex 15.1 13.6 3.2
    endloop
  endfacet
  facet normal 0 1 0
    outer loop
      vertex -15.1 13.6 3.2
      vertex 15.1 13.6 2
      vertex -15.1 13.6 2
    endloop
  endfacet
  facet normal -0.233325 0.972399 0
    outer loop
      vertex -15.3347 13.5815 2
      vertex -15.5635 13.5266 3.2
      vertex -15.3347 13.5815 3.2
    endloop
  endfacet
  facet normal -0.233325 0.972399 0
    outer loop
      vertex -15.5635 13.5266 3.2
      vertex -15.3347 13.5815 2
      vertex -15.5635 13.5266 2
    endloop
  endfacet
  facet normal 0.382714 -0.923867 0
    outer loop
      vertex 15.5635 -13.5266 2
      vertex 15.781 -13.4365 3.2
      vertex 15.5635 -13.5266 3.2
    endloop
  endfacet
  facet normal 0.382714 -0.923867 0
    outer loop
      vertex 15.781 -13.4365 3.2
      vertex 15.5635 -13.5266 2
      vertex 15.781 -13.4365 2
    endloop
  endfacet
  facet normal -0.382714 -0.923867 0
    outer loop
      vertex -15.781 -13.4365 2
      vertex -15.5635 -13.5266 3.2
      vertex -15.781 -13.4365 3.2
    endloop
  endfacet
  facet normal -0.382714 -0.923867 -0
    outer loop
      vertex -15.5635 -13.5266 3.2
      vertex -15.781 -13.4365 2
      vertex -15.5635 -13.5266 2
    endloop
  endfacet
  facet normal -0.972399 -0.233325 0
    outer loop
      vertex -16.5266 -12.5635 2
      vertex -16.5815 -12.3347 3.2
      vertex -16.5815 -12.3347 2
    endloop
  endfacet
  facet normal -0.972399 -0.233325 0
    outer loop
      vertex -16.5815 -12.3347 3.2
      vertex -16.5266 -12.5635 2
      vertex -16.5266 -12.5635 3.2
    endloop
  endfacet
  facet normal 0 0 1
    outer loop
      vertex 15.1 13.6 3.2
      vertex 16.6 12.1 3.2
      vertex 16.5815 12.3347 3.2
    endloop
  endfacet
  facet normal 0 0 1
    outer loop
      vertex 16.6 12.1 3.2
      vertex 15.1 13.6 3.2
      vertex 16.6 -12.1 3.2
    endloop
  endfacet
  facet normal 0 0 1
    outer loop
      vertex 15.1 13.6 3.2
      vertex 16.5815 12.3347 3.2
      vertex 16.5266 12.5635 3.2
    endloop
  endfacet
  facet normal 0 0 1
    outer loop
      vertex 15.1 -13.6 3.2
      vertex 16.6 -12.1 3.2
      vertex 15.1 13.6 3.2
    endloop
  endfacet
  facet normal 0 0 1
    outer loop
      vertex 15.1 13.6 3.2
      vertex 16.5266 12.5635 3.2
      vertex 16.4365 12.781 3.2
    endloop
  endfacet
  facet normal 0 0 1
    outer loop
      vertex 16.6 -12.1 3.2
      vertex 15.1 -13.6 3.2
      vertex 16.5815 -12.3347 3.2
    endloop
  endfacet
  facet normal 0 0 1
    outer loop
      vertex 15.1 13.6 3.2
      vertex 16.4365 12.781 3.2
      vertex 16.3135 12.9817 3.2
    endloop
  endfacet
  facet normal 0 0 1
    outer loop
      vertex 16.5815 -12.3347 3.2
      vertex 15.1 -13.6 3.2
      vertex 16.5266 -12.5635 3.2
    endloop
  endfacet
  facet normal 0 0 1
    outer loop
      vertex 15.1 13.6 3.2
      vertex 16.3135 12.9817 3.2
      vertex 16.1607 13.1607 3.2
    endloop
  endfacet
  facet normal 0 0 1
    outer loop
      vertex 16.5266 -12.5635 3.2
      vertex 15.1 -13.6 3.2
      vertex 16.4365 -12.781 3.2
    endloop
  endfacet
  facet normal 0 0 1
    outer loop
      vertex 15.1 13.6 3.2
      vertex 16.1607 13.1607 3.2
      vertex 15.9817 13.3135 3.2
    endloop
  endfacet
  facet normal 0 0 1
    outer loop
      vertex 16.4365 -12.781 3.2
      vertex 15.1 -13.6 3.2
      vertex 16.3135 -12.9817 3.2
    endloop
  endfacet
  facet normal 0 0 1
    outer loop
      vertex 15.1 13.6 3.2
      vertex 15.9817 13.3135 3.2
      vertex 15.781 13.4365 3.2
    endloop
  endfacet
  facet normal 0 0 1
    outer loop
      vertex 16.3135 -12.9817 3.2
      vertex 15.1 -13.6 3.2
      vertex 16.1607 -13.1607 3.2
    endloop
  endfacet
  facet normal 0 0 1
    outer loop
      vertex 15.1 13.6 3.2
      vertex 15.781 13.4365 3.2
      vertex 15.5635 13.5266 3.2
    endloop
  endfacet
  facet normal 0 0 1
    outer loop
      vertex 16.1607 -13.1607 3.2
      vertex 15.1 -13.6 3.2
      vertex 15.9817 -13.3135 3.2
    endloop
  endfacet
  facet normal 0 0 1
    outer loop
      vertex 15.1 13.6 3.2
      vertex 15.5635 13.5266 3.2
      vertex 15.3347 13.5815 3.2
    endloop
  endfacet
  facet normal 0 0 1
    outer loop
      vertex 15.9817 -13.3135 3.2
      vertex 15.1 -13.6 3.2
      vertex 15.781 -13.4365 3.2
    endloop
  endfacet
  facet normal 0 0 1
    outer loop
      vertex 15.781 -13.4365 3.2
      vertex 15.1 -13.6 3.2
      vertex 15.5635 -13.5266 3.2
    endloop
  endfacet
  facet normal 0 0 1
    outer loop
      vertex 15.5635 -13.5266 3.2
      vertex 15.1 -13.6 3.2
      vertex 15.3347 -13.5815 3.2
    endloop
  endfacet
  facet normal -0 0 1
    outer loop
      vertex -15.1 13.6 3.2
      vertex 15.1 -13.6 3.2
      vertex 15.1 13.6 3.2
    endloop
  endfacet
  facet normal 0 0 1
    outer loop
      vertex -15.1 13.6 3.2
      vertex -15.1 -13.6 3.2
      vertex 15.1 -13.6 3.2
    endloop
  endfacet
  facet normal 0 0 1
    outer loop
      vertex -16.6 12.1 3.2
      vertex -15.1 13.6 3.2
      vertex -15.3347 13.5815 3.2
    endloop
  endfacet
  facet normal 0 0 1
    outer loop
      vertex -15.1 13.6 3.2
      vertex -16.6 12.1 3.2
      vertex -15.1 -13.6 3.2
    endloop
  endfacet
  facet normal 0 0 1
    outer loop
      vertex -16.6 12.1 3.2
      vertex -15.3347 13.5815 3.2
      vertex -15.5635 13.5266 3.2
    endloop
  endfacet
  facet normal -0 0 1
    outer loop
      vertex -16.6 -12.1 3.2
      vertex -15.1 -13.6 3.2
      vertex -16.6 12.1 3.2
    endloop
  endfacet
  facet normal 0 0 1
    outer loop
      vertex -16.6 12.1 3.2
      vertex -15.5635 13.5266 3.2
      vertex -15.781 13.4365 3.2
    endloop
  endfacet
  facet normal 0 0 1
    outer loop
      vertex -15.1 -13.6 3.2
      vertex -16.6 -12.1 3.2
      vertex -15.3347 -13.5815 3.2
    endloop
  endfacet
  facet normal 0 0 1
    outer loop
      vertex -16.6 12.1 3.2
      vertex -15.781 13.4365 3.2
      vertex -15.9817 13.3135 3.2
    endloop
  endfacet
  facet normal 0 0 1
    outer loop
      vertex -15.3347 -13.5815 3.2
      vertex -16.6 -12.1 3.2
      vertex -15.5635 -13.5266 3.2
    endloop
  endfacet
  facet normal 0 0 1
    outer loop
      vertex -16.6 12.1 3.2
      vertex -15.9817 13.3135 3.2
      vertex -16.1607 13.1607 3.2
    endloop
  endfacet
  facet normal 0 0 1
    outer loop
      vertex -15.5635 -13.5266 3.2
      vertex -16.6 -12.1 3.2
      vertex -15.781 -13.4365 3.2
    endloop
  endfacet
  facet normal 0 0 1
    outer loop
      vertex -16.6 12.1 3.2
      vertex -16.1607 13.1607 3.2
      vertex -16.3135 12.9817 3.2
    endloop
  endfacet
  facet normal 0 0 1
    outer loop
      vertex -15.781 -13.4365 3.2
      vertex -16.6 -12.1 3.2
      vertex -15.9817 -13.3135 3.2
    endloop
  endfacet
  facet normal 0 0 1
    outer loop
      vertex -16.6 12.1 3.2
      vertex -16.3135 12.9817 3.2
      vertex -16.4365 12.781 3.2
    endloop
  endfacet
  facet normal 0 0 1
    outer loop
      vertex -15.9817 -13.3135 3.2
      vertex -16.6 -12.1 3.2
      vertex -16.1607 -13.1607 3.2
    endloop
  endfacet
  facet normal 0 0 1
    outer loop
      vertex -16.6 12.1 3.2
      vertex -16.4365 12.781 3.2
      vertex -16.5266 12.5635 3.2
    endloop
  endfacet
  facet normal 0 0 1
    outer loop
      vertex -16.1607 -13.1607 3.2
      vertex -16.6 -12.1 3.2
      vertex -16.3135 -12.9817 3.2
    endloop
  endfacet
  facet normal 0 0 1
    outer loop
      vertex -16.6 12.1 3.2
      vertex -16.5266 12.5635 3.2
      vertex -16.5815 12.3347 3.2
    endloop
  endfacet
  facet normal 0 0 1
    outer loop
      vertex -16.3135 -12.9817 3.2
      vertex -16.6 -12.1 3.2
      vertex -16.4365 -12.781 3.2
    endloop
  endfacet
  facet normal 0 0 1
    outer loop
      vertex -16.4365 -12.781 3.2
      vertex -16.6 -12.1 3.2
      vertex -16.5266 -12.5635 3.2
    endloop
  endfacet
  facet normal 0 0 1
    outer loop
      vertex -16.5266 -12.5635 3.2
      vertex -16.6 -12.1 3.2
      vertex -16.5815 -12.3347 3.2
    endloop
  endfacet
  facet normal 0.996908 -0.0785803 0
    outer loop
      vertex 16.5815 -12.3347 3.2
      vertex 16.6 -12.1 2
      vertex 16.6 -12.1 3.2
    endloop
  endfacet
  facet normal 0.996908 -0.0785803 0
    outer loop
      vertex 16.6 -12.1 2
      vertex 16.5815 -12.3347 3.2
      vertex 16.5815 -12.3347 2
    endloop
  endfacet
  facet normal -0.923867 -0.382714 0
    outer loop
      vertex -16.4365 -12.781 2
      vertex -16.5266 -12.5635 3.2
      vertex -16.5266 -12.5635 2
    endloop
  endfacet
  facet normal -0.923867 -0.382714 0
    outer loop
      vertex -16.5266 -12.5635 3.2
      vertex -16.4365 -12.781 2
      vertex -16.4365 -12.781 3.2
    endloop
  endfacet
  facet normal -0.760575 -0.64925 0
    outer loop
      vertex -16.1607 -13.1607 2
      vertex -16.3135 -12.9817 3.2
      vertex -16.3135 -12.9817 2
    endloop
  endfacet
  facet normal -0.760575 -0.64925 0
    outer loop
      vertex -16.3135 -12.9817 3.2
      vertex -16.1607 -13.1607 2
      vertex -16.1607 -13.1607 3.2
    endloop
  endfacet
  facet normal -1 0 0
    outer loop
      vertex -16.6 -12.1 2
      vertex -16.6 12.1 3.2
      vertex -16.6 12.1 2
    endloop
  endfacet
  facet normal -1 -0 0
    outer loop
      vertex -16.6 12.1 3.2
      vertex -16.6 -12.1 2
      vertex -16.6 -12.1 3.2
    endloop
  endfacet
  facet normal -0.522532 -0.85262 0
    outer loop
      vertex -15.9817 -13.3135 2
      vertex -15.781 -13.4365 3.2
      vertex -15.9817 -13.3135 3.2
    endloop
  endfacet
  facet normal -0.522532 -0.85262 -0
    outer loop
      vertex -15.781 -13.4365 3.2
      vertex -15.9817 -13.3135 2
      vertex -15.781 -13.4365 2
    endloop
  endfacet
  facet normal -0.996908 0.0785803 0
    outer loop
      vertex -16.6 12.1 2
      vertex -16.5815 12.3347 3.2
      vertex -16.5815 12.3347 2
    endloop
  endfacet
  facet normal -0.996908 0.0785803 0
    outer loop
      vertex -16.5815 12.3347 3.2
      vertex -16.6 12.1 2
      vertex -16.6 12.1 3.2
    endloop
  endfacet
  facet normal 0.85262 -0.522532 0
    outer loop
      vertex 16.3135 -12.9817 3.2
      vertex 16.4365 -12.781 2
      vertex 16.4365 -12.781 3.2
    endloop
  endfacet
  facet normal 0.85262 -0.522532 0
    outer loop
      vertex 16.4365 -12.781 2
      vertex 16.3135 -12.9817 3.2
      vertex 16.3135 -12.9817 2
    endloop
  endfacet
  facet normal 0.522532 0.85262 -0
    outer loop
      vertex 15.9817 13.3135 2
      vertex 15.781 13.4365 3.2
      vertex 15.9817 13.3135 3.2
    endloop
  endfacet
  facet normal 0.522532 0.85262 0
    outer loop
      vertex 15.781 13.4365 3.2
      vertex 15.9817 13.3135 2
      vertex 15.781 13.4365 2
    endloop
  endfacet
  facet normal 0.85262 0.522532 0
    outer loop
      vertex 16.4365 12.781 3.2
      vertex 16.3135 12.9817 2
      vertex 16.3135 12.9817 3.2
    endloop
  endfacet
  facet normal 0.85262 0.522532 0
    outer loop
      vertex 16.3135 12.9817 2
      vertex 16.4365 12.781 3.2
      vertex 16.4365 12.781 2
    endloop
  endfacet
  facet normal 1 -0 0
    outer loop
      vertex 16.6 -12.1 3.2
      vertex 16.6 12.1 2
      vertex 16.6 12.1 3.2
    endloop
  endfacet
  facet normal 1 0 0
    outer loop
      vertex 16.6 12.1 2
      vertex 16.6 -12.1 3.2
      vertex 16.6 -12.1 2
    endloop
  endfacet
  facet normal 0.233325 -0.972399 0
    outer loop
      vertex 15.3347 -13.5815 2
      vertex 15.5635 -13.5266 3.2
      vertex 15.3347 -13.5815 3.2
    endloop
  endfacet
  facet normal 0.233325 -0.972399 0
    outer loop
      vertex 15.5635 -13.5266 3.2
      vertex 15.3347 -13.5815 2
      vertex 15.5635 -13.5266 2
    endloop
  endfacet
  facet normal 0.233325 0.972399 -0
    outer loop
      vertex 15.5635 13.5266 2
      vertex 15.3347 13.5815 3.2
      vertex 15.5635 13.5266 3.2
    endloop
  endfacet
  facet normal 0.233325 0.972399 0
    outer loop
      vertex 15.3347 13.5815 3.2
      vertex 15.5635 13.5266 2
      vertex 15.3347 13.5815 2
    endloop
  endfacet
  facet normal 0.760575 0.64925 0
    outer loop
      vertex 16.3135 12.9817 3.2
      vertex 16.1607 13.1607 2
      vertex 16.1607 13.1607 3.2
    endloop
  endfacet
  facet normal 0.760575 0.64925 0
    outer loop
      vertex 16.1607 13.1607 2
      vertex 16.3135 12.9817 3.2
      vertex 16.3135 12.9817 2
    endloop
  endfacet
  facet normal 0.972399 0.233325 0
    outer loop
      vertex 16.5815 12.3347 3.2
      vertex 16.5266 12.5635 2
      vertex 16.5266 12.5635 3.2
    endloop
  endfacet
  facet normal 0.972399 0.233325 0
    outer loop
      vertex 16.5266 12.5635 2
      vertex 16.5815 12.3347 3.2
      vertex 16.5815 12.3347 2
    endloop
  endfacet
  facet normal 0.923867 0.382714 0
    outer loop
      vertex 16.5266 12.5635 3.2
      vertex 16.4365 12.781 2
      vertex 16.4365 12.781 3.2
    endloop
  endfacet
  facet normal 0.923867 0.382714 0
    outer loop
      vertex 16.4365 12.781 2
      vertex 16.5266 12.5635 3.2
      vertex 16.5266 12.5635 2
    endloop
  endfacet
  facet normal -0.923867 0.382714 0
    outer loop
      vertex -16.5266 12.5635 2
      vertex -16.4365 12.781 3.2
      vertex -16.4365 12.781 2
    endloop
  endfacet
  facet normal -0.923867 0.382714 0
    outer loop
      vertex -16.4365 12.781 3.2
      vertex -16.5266 12.5635 2
      vertex -16.5266 12.5635 3.2
    endloop
  endfacet
  facet normal -0.233325 -0.972399 0
    outer loop
      vertex -15.5635 -13.5266 2
      vertex -15.3347 -13.5815 3.2
      vertex -15.5635 -13.5266 3.2
    endloop
  endfacet
  facet normal -0.233325 -0.972399 -0
    outer loop
      vertex -15.3347 -13.5815 3.2
      vertex -15.5635 -13.5266 2
      vertex -15.3347 -13.5815 2
    endloop
  endfacet
  facet normal -0.85262 -0.522532 0
    outer loop
      vertex -16.3135 -12.9817 2
      vertex -16.4365 -12.781 3.2
      vertex -16.4365 -12.781 2
    endloop
  endfacet
  facet normal -0.85262 -0.522532 0
    outer loop
      vertex -16.4365 -12.781 3.2
      vertex -16.3135 -12.9817 2
      vertex -16.3135 -12.9817 3.2
    endloop
  endfacet
  facet normal -0.0785803 -0.996908 0
    outer loop
      vertex -15.3347 -13.5815 2
      vertex -15.1 -13.6 3.2
      vertex -15.3347 -13.5815 3.2
    endloop
  endfacet
  facet normal -0.0785803 -0.996908 -0
    outer loop
      vertex -15.1 -13.6 3.2
      vertex -15.3347 -13.5815 2
      vertex -15.1 -13.6 2
    endloop
  endfacet
  facet normal 0.0785803 -0.996908 0
    outer loop
      vertex 15.1 -13.6 2
      vertex 15.3347 -13.5815 3.2
      vertex 15.1 -13.6 3.2
    endloop
  endfacet
  facet normal 0.0785803 -0.996908 0
    outer loop
      vertex 15.3347 -13.5815 3.2
      vertex 15.1 -13.6 2
      vertex 15.3347 -13.5815 2
    endloop
  endfacet
  facet normal 0.760575 -0.64925 0
    outer loop
      vertex 16.1607 -13.1607 3.2
      vertex 16.3135 -12.9817 2
      vertex 16.3135 -12.9817 3.2
    endloop
  endfacet
  facet normal 0.760575 -0.64925 0
    outer loop
      vertex 16.3135 -12.9817 2
      vertex 16.1607 -13.1607 3.2
      vertex 16.1607 -13.1607 2
    endloop
  endfacet
  facet normal 0.972399 -0.233325 0
    outer loop
      vertex 16.5266 -12.5635 3.2
      vertex 16.5815 -12.3347 2
      vertex 16.5815 -12.3347 3.2
    endloop
  endfacet
  facet normal 0.972399 -0.233325 0
    outer loop
      vertex 16.5815 -12.3347 2
      vertex 16.5266 -12.5635 3.2
      vertex 16.5266 -12.5635 2
    endloop
  endfacet
  facet normal -0.972399 0.233325 0
    outer loop
      vertex -16.5815 12.3347 2
      vertex -16.5266 12.5635 3.2
      vertex -16.5266 12.5635 2
    endloop
  endfacet
  facet normal -0.972399 0.233325 0
    outer loop
      vertex -16.5266 12.5635 3.2
      vertex -16.5815 12.3347 2
      vertex -16.5815 12.3347 3.2
    endloop
  endfacet
  facet normal -0.0785803 0.996908 0
    outer loop
      vertex -15.1 13.6 2
      vertex -15.3347 13.5815 3.2
      vertex -15.1 13.6 3.2
    endloop
  endfacet
  facet normal -0.0785803 0.996908 0
    outer loop
      vertex -15.3347 13.5815 3.2
      vertex -15.1 13.6 2
      vertex -15.3347 13.5815 2
    endloop
  endfacet
  facet normal -0.522532 0.85262 0
    outer loop
      vertex -15.781 13.4365 2
      vertex -15.9817 13.3135 3.2
      vertex -15.781 13.4365 3.2
    endloop
  endfacet
  facet normal -0.522532 0.85262 0
    outer loop
      vertex -15.9817 13.3135 3.2
      vertex -15.781 13.4365 2
      vertex -15.9817 13.3135 2
    endloop
  endfacet
  facet normal -0.760575 0.64925 0
    outer loop
      vertex -16.3135 12.9817 2
      vertex -16.1607 13.1607 3.2
      vertex -16.1607 13.1607 2
    endloop
  endfacet
  facet normal -0.760575 0.64925 0
    outer loop
      vertex -16.1607 13.1607 3.2
      vertex -16.3135 12.9817 2
      vertex -16.3135 12.9817 3.2
    endloop
  endfacet
  facet normal -0.85262 0.522532 0
    outer loop
      vertex -16.4365 12.781 2
      vertex -16.3135 12.9817 3.2
      vertex -16.3135 12.9817 2
    endloop
  endfacet
  facet normal -0.85262 0.522532 0
    outer loop
      vertex -16.3135 12.9817 3.2
      vertex -16.4365 12.781 2
      vertex -16.4365 12.781 3.2
    endloop
  endfacet
endsolid OpenSCAD_Model
